<?xml version="1.0" encoding="UTF-8"?> <!-- Generator: Adobe Illustrator 25.2.0, SVG Export Plug-In . SVG Version: 6.00 Build 0) --> <svg xmlns="http://www.w3.org/2000/svg" xmlns:xlink="http://www.w3.org/1999/xlink" version="1.1" id="Layer_1" x="0px" y="0px" viewBox="0 0 1080 1080" style="enable-background:new 0 0 1080 1080;" xml:space="preserve"> <style type="text/css"> .st0{enable-background:new ;} .st1{fill:#0A2749;} .st2{fill:#DD4E10;} .st3{fill:#8F8F8F;} .st4{fill:none;stroke:#DD4E10;stroke-width:2;stroke-linecap:round;stroke-linejoin:round;stroke-dasharray:8;} </style> <g class="st0"> <path class="st1" d="M610.1,952.6v2.9h-8.2V977h-3.3v-21.5h-8.2v-2.9H610.1z"></path> <path class="st1" d="M612.2,952.6h3v3.4h-3V952.6z M612.2,959.3h3V977h-3V959.3z"></path> <path class="st1" d="M620.5,959.2h3v2.5c0.7-0.9,1.4-1.5,1.9-1.9c1-0.7,2.1-1,3.4-1c1.4,0,2.6,0.3,3.4,1c0.5,0.4,0.9,1,1.3,1.8 c0.7-1,1.4-1.7,2.3-2.1c0.9-0.5,1.9-0.7,3-0.7c2.4,0,4,0.9,4.9,2.6c0.5,0.9,0.7,2.2,0.7,3.8V977h-3.1v-12.4c0-1.2-0.3-2-0.9-2.4 c-0.6-0.4-1.3-0.7-2.2-0.7c-1.2,0-2.2,0.4-3,1.2s-1.3,2.1-1.3,3.9V977h-3v-11.6c0-1.2-0.1-2.1-0.4-2.6c-0.5-0.8-1.3-1.2-2.5-1.2 c-1.1,0-2.2,0.4-3.1,1.3c-0.9,0.9-1.4,2.5-1.4,4.7v9.4h-3V959.2z"></path> <path class="st1" d="M660.5,959.7c1.2,0.6,2.1,1.4,2.7,2.3c0.6,0.9,1,1.9,1.2,3.1c0.2,0.8,0.3,2.1,0.3,3.9h-12.9 c0.1,1.8,0.5,3.3,1.3,4.4c0.8,1.1,2,1.6,3.7,1.6c1.5,0,2.8-0.5,3.7-1.6c0.5-0.6,0.9-1.3,1.1-2.1h2.9c-0.1,0.7-0.3,1.4-0.8,2.2 c-0.4,0.8-0.9,1.5-1.5,2c-0.9,0.9-2,1.5-3.3,1.8c-0.7,0.2-1.5,0.3-2.4,0.3c-2.2,0-4.1-0.8-5.6-2.4c-1.5-1.6-2.3-3.9-2.3-6.8 c0-2.9,0.8-5.2,2.3-7c1.5-1.8,3.6-2.7,6-2.7C658.1,958.8,659.3,959.1,660.5,959.7z M661.6,966.7c-0.1-1.3-0.4-2.3-0.8-3.1 c-0.8-1.4-2.2-2.2-4.1-2.2c-1.4,0-2.5,0.5-3.4,1.5c-0.9,1-1.4,2.2-1.5,3.8H661.6z"></path> </g> <g class="st0"> <path class="st1" d="M136.6,72.4h-7.9v-3.6H149v3.6H141V93h-4.4V72.4z"></path> <path class="st1" d="M168.4,82.5V93h-4.2V82.7c0-1.4-0.3-2.4-0.8-3c-0.5-0.6-1.3-0.9-2.4-0.9c-1.3,0-2.3,0.4-3.1,1.2 s-1.2,1.9-1.2,3.3V93h-4.2V68h4.2v10.3c0.6-0.9,1.4-1.6,2.3-2.2c1-0.5,2.1-0.8,3.3-0.8C166.3,75.4,168.4,77.7,168.4,82.5z"></path> <path class="st1" d="M188.6,84.6h-11.8c0.1,1.8,0.5,3.2,1.4,4.1c0.8,0.9,2.1,1.3,3.7,1.3c1.9,0,3.6-0.6,5.2-1.8l1.2,2.9 c-0.8,0.7-1.8,1.2-3,1.6s-2.4,0.6-3.6,0.6c-2.8,0-5-0.8-6.6-2.4c-1.6-1.6-2.4-3.8-2.4-6.5c0-1.7,0.4-3.3,1.1-4.7 c0.7-1.4,1.7-2.4,3-3.2c1.3-0.8,2.7-1.1,4.3-1.1c2.4,0,4.2,0.8,5.6,2.3c1.4,1.5,2.1,3.6,2.1,6.3V84.6z M178.3,79.5 c-0.7,0.7-1.2,1.6-1.4,2.9h8c-0.1-1.3-0.5-2.3-1.2-2.9c-0.6-0.7-1.5-1-2.7-1C180,78.4,179,78.8,178.3,79.5z"></path> <path class="st1" d="M203.3,68.8h10.5c2.6,0,4.6,0.6,6.1,1.9c1.5,1.3,2.2,3,2.2,5.2s-0.7,3.9-2.2,5.2s-3.5,1.9-6.1,1.9h-6.1V93 h-4.4V68.8z M213.3,79.5c1.5,0,2.7-0.3,3.5-0.9c0.8-0.6,1.2-1.5,1.2-2.7c0-1.2-0.4-2.1-1.2-2.7c-0.8-0.6-1.9-0.9-3.5-0.9h-5.6v7.3 H213.3z"></path> <path class="st1" d="M228.9,92.2c-1.3-0.7-2.3-1.8-3.1-3.1c-0.7-1.3-1.1-2.9-1.1-4.7s0.4-3.4,1.1-4.7c0.7-1.3,1.7-2.4,3.1-3.1 c1.3-0.7,2.9-1.1,4.6-1.1c1.7,0,3.2,0.4,4.6,1.1c1.3,0.7,2.3,1.8,3,3.1c0.7,1.3,1.1,2.9,1.1,4.7s-0.4,3.4-1.1,4.7 c-0.7,1.3-1.7,2.4-3,3.1c-1.3,0.7-2.8,1.1-4.6,1.1C231.7,93.3,230.2,92.9,228.9,92.2z M236.8,88.5c0.8-0.9,1.1-2.3,1.1-4.2 c0-1.8-0.4-3.2-1.2-4.2c-0.8-1-1.9-1.4-3.3-1.4c-1.4,0-2.5,0.5-3.3,1.4c-0.8,1-1.2,2.4-1.2,4.2c0,1.9,0.4,3.3,1.1,4.2 c0.8,0.9,1.9,1.4,3.3,1.4C234.9,89.9,236,89.5,236.8,88.5z"></path> <path class="st1" d="M273.6,75.8L266.8,93h-3.7l-4.2-11.3L254.7,93H251l-6.7-17.2h4.4l4.4,12.1l4.5-12.1h3.1L265,88l4.4-12.2H273.6 z"></path> <path class="st1" d="M291.7,84.6h-11.8c0.1,1.8,0.5,3.2,1.4,4.1c0.8,0.9,2.1,1.3,3.7,1.3c1.9,0,3.6-0.6,5.2-1.8l1.2,2.9 c-0.8,0.7-1.8,1.2-3,1.6s-2.4,0.6-3.6,0.6c-2.8,0-5-0.8-6.6-2.4c-1.6-1.6-2.4-3.8-2.4-6.5c0-1.7,0.4-3.3,1.1-4.7 c0.7-1.4,1.7-2.4,3-3.2c1.3-0.8,2.7-1.1,4.3-1.1c2.4,0,4.2,0.8,5.6,2.3c1.4,1.5,2.1,3.6,2.1,6.3V84.6z M281.4,79.5 c-0.7,0.7-1.2,1.6-1.4,2.9h8c-0.1-1.3-0.5-2.3-1.2-2.9c-0.6-0.7-1.5-1-2.7-1C283,78.4,282.1,78.8,281.4,79.5z"></path> <path class="st1" d="M307,75.7l0,3.9c-0.7-0.3-1.5-0.4-2.2-0.4c-1.5,0-2.6,0.4-3.3,1.3c-0.8,0.8-1.1,2-1.1,3.3V93H296V80.7 c0-1.8-0.1-3.4-0.3-4.9h4l0.3,3c0.4-1.1,1.1-2,2-2.6c0.9-0.6,2-0.9,3.2-0.9C305.9,75.4,306.5,75.5,307,75.7z"></path> <path class="st1" d="M323.3,92.2c-1.3-0.7-2.3-1.8-3.1-3.1c-0.7-1.3-1.1-2.9-1.1-4.7s0.4-3.4,1.1-4.7c0.7-1.3,1.7-2.4,3.1-3.1 c1.3-0.7,2.9-1.1,4.6-1.1c1.7,0,3.2,0.4,4.6,1.1c1.3,0.7,2.3,1.8,3,3.1c0.7,1.3,1.1,2.9,1.1,4.7s-0.4,3.4-1.1,4.7 c-0.7,1.3-1.7,2.4-3,3.1c-1.3,0.7-2.8,1.1-4.6,1.1C326.1,93.3,324.6,92.9,323.3,92.2z M331.2,88.5c0.8-0.9,1.1-2.3,1.1-4.2 c0-1.8-0.4-3.2-1.2-4.2c-0.8-1-1.9-1.4-3.3-1.4c-1.4,0-2.5,0.5-3.3,1.4c-0.8,1-1.2,2.4-1.2,4.2c0,1.9,0.4,3.3,1.1,4.2 c0.8,0.9,1.9,1.4,3.3,1.4C329.3,89.9,330.4,89.5,331.2,88.5z"></path> <path class="st1" d="M346.2,74.4v1.5h3.8V79h-3.8v14H342V79h-3.3v-3.2h3.3v-1.7c0-2,0.5-3.6,1.5-4.7c1-1.1,2.5-1.6,4.4-1.6 c1.1,0,2,0.1,2.7,0.4v3.4c-0.6-0.2-1.2-0.2-1.7-0.2C347.1,71.3,346.2,72.4,346.2,74.4z"></path> <path class="st1" d="M370,72.4h-7.9v-3.6h20.2v3.6h-7.9V93H370V72.4z"></path> <path class="st1" d="M390.3,68v4.2h-4.7V68H390.3z M385.8,75.8h4.2V93h-4.2V75.8z"></path> <path class="st1" d="M411.4,82.5V93h-4.2V82.7c0-1.4-0.3-2.4-0.8-3c-0.5-0.6-1.3-0.9-2.4-0.9c-1.3,0-2.3,0.4-3.1,1.2 s-1.2,1.9-1.2,3.3V93h-4.2V80.7c0-1.8-0.1-3.4-0.3-4.9h4l0.3,2.8c0.6-1,1.4-1.8,2.4-2.4c1-0.6,2.1-0.9,3.4-0.9 C409.3,75.4,411.4,77.7,411.4,82.5z"></path> <path class="st1" d="M432.9,75.8l-8,18.3c-0.9,2.1-2.1,3.7-3.5,4.7c-1.4,1-3.1,1.6-5.2,1.9l-1-3.3c1.6-0.4,2.8-0.8,3.6-1.4 c0.8-0.6,1.5-1.4,2-2.5l0.5-1.3l-7.1-16.6h4.5l4.9,12.3l5-12.3H432.9z"></path> <path class="st1" d="M466.3,79.9v11.6c-1.1,0.5-2.4,1-4,1.3c-1.6,0.3-3.2,0.5-4.8,0.5c-2.5,0-4.7-0.5-6.5-1.5 c-1.8-1-3.2-2.4-4.2-4.3s-1.5-4.1-1.5-6.7c0-2.5,0.5-4.7,1.5-6.6c1-1.9,2.4-3.3,4.2-4.3c1.8-1,3.9-1.5,6.3-1.5 c1.7,0,3.3,0.2,4.8,0.7c1.5,0.5,2.7,1.2,3.7,2.1l-1.5,3.2c-1.1-0.9-2.2-1.5-3.3-1.9c-1.1-0.4-2.3-0.6-3.6-0.6 c-2.5,0-4.4,0.7-5.7,2.2c-1.3,1.5-1.9,3.7-1.9,6.6c0,3,0.7,5.2,2,6.7c1.3,1.5,3.3,2.3,5.9,2.3c1.6,0,3.2-0.2,4.7-0.6v-6.1h-5.2 v-3.2H466.3z"></path> <path class="st1" d="M488.1,75.8V93h-4.2v-2.8c-0.5,1-1.3,1.7-2.2,2.2s-2.1,0.8-3.3,0.8c-1.5,0-2.8-0.4-4-1.1 c-1.2-0.7-2.1-1.8-2.7-3.1c-0.6-1.3-1-2.9-1-4.7c0-1.8,0.3-3.3,1-4.7c0.6-1.4,1.5-2.4,2.7-3.2s2.5-1.1,3.9-1.1 c1.2,0,2.4,0.3,3.3,0.8c1,0.5,1.7,1.3,2.2,2.2v-2.6H488.1z M482.7,88.5c0.8-1,1.2-2.3,1.2-4.1c0-1.8-0.4-3.2-1.2-4.2 c-0.8-1-1.9-1.5-3.3-1.5c-1.4,0-2.5,0.5-3.3,1.5c-0.8,1-1.2,2.4-1.2,4.2c0,1.8,0.4,3.1,1.2,4.1c0.8,1,1.9,1.4,3.3,1.4 C480.9,89.9,482,89.5,482.7,88.5z"></path> <path class="st1" d="M497.9,68v4.2h-4.7V68H497.9z M493.4,75.8h4.2V93h-4.2V75.8z"></path> <path class="st1" d="M519,82.5V93h-4.2V82.7c0-1.4-0.3-2.4-0.8-3c-0.5-0.6-1.3-0.9-2.4-0.9c-1.3,0-2.3,0.4-3.1,1.2 c-0.8,0.8-1.2,1.9-1.2,3.3V93H503V80.7c0-1.8-0.1-3.4-0.3-4.9h4l0.3,2.8c0.6-1,1.4-1.8,2.4-2.4s2.1-0.9,3.4-0.9 C516.9,75.4,519,77.7,519,82.5z"></path> <path class="st1" d="M523.1,91.1l1.2-3c1.8,1.4,3.9,2,6.3,2c1,0,1.8-0.2,2.4-0.5c0.6-0.3,0.8-0.8,0.8-1.4c0-0.5-0.2-0.9-0.6-1.2 c-0.4-0.3-1-0.6-2-0.8l-2.9-0.6c-3.1-0.7-4.7-2.3-4.7-4.8c0-1,0.3-2,0.9-2.8c0.6-0.8,1.4-1.4,2.5-1.9s2.3-0.7,3.7-0.7 c1.2,0,2.4,0.2,3.5,0.6c1.1,0.4,2.1,0.9,3,1.6l-1.3,2.9c-1.7-1.3-3.5-1.9-5.3-1.9c-1,0-1.7,0.2-2.3,0.5c-0.5,0.4-0.8,0.9-0.8,1.5 c0,0.5,0.2,0.9,0.5,1.2c0.3,0.3,0.9,0.5,1.7,0.7l2.9,0.6c1.7,0.4,2.9,1,3.7,1.8s1.2,1.9,1.2,3.1c0,1.6-0.6,2.8-1.9,3.8 c-1.3,0.9-3,1.4-5.2,1.4C527.4,93.3,524.9,92.5,523.1,91.1z"></path> </g> <g class="st0"> <path class="st1" d="M40.6,657.8v-3.3H65v3.3H40.6z"></path> <path class="st1" d="M47.2,648.8v-3h2.5c-0.9-0.7-1.5-1.3-1.9-1.9c-0.7-1-1-2.1-1-3.4c0-1.4,0.3-2.6,1-3.4c0.4-0.5,1-0.9,1.8-1.3 c-1-0.7-1.7-1.4-2.1-2.3c-0.5-0.9-0.7-1.9-0.7-3c0-2.4,0.9-4,2.6-4.9c0.9-0.5,2.2-0.7,3.8-0.7H65v3.1H52.6c-1.2,0-2,0.3-2.4,0.9 s-0.7,1.3-0.7,2.2c0,1.2,0.4,2.2,1.2,3c0.8,0.8,2.1,1.3,3.9,1.3H65v3H53.4c-1.2,0-2.1,0.1-2.6,0.4c-0.8,0.5-1.2,1.3-1.2,2.5 c0,1.1,0.4,2.2,1.3,3.1c0.9,0.9,2.5,1.4,4.7,1.4H65v3H47.2z"></path> <path class="st1" d="M47.3,620v-2.9h2.4c-0.8-0.6-1.4-1.3-1.9-2c-0.7-1-1-2.2-1-3.6c0-2,0.8-3.7,2.3-5.1c1.5-1.4,3.8-2.1,6.6-2.1 c3.9,0,6.6,1,8.3,3c1.1,1.3,1.6,2.8,1.6,4.5c0,1.3-0.3,2.5-0.9,3.4c-0.3,0.5-0.9,1.1-1.7,1.8h9.1v3H47.3z M61.2,608.8 c-1.2-0.9-2.9-1.4-5.2-1.4c-1.4,0-2.6,0.2-3.7,0.6c-2,0.8-2.9,2.2-2.9,4.3c0,2.1,1,3.5,3.1,4.3c1.1,0.4,2.5,0.6,4.2,0.6 c1.4,0,2.5-0.2,3.5-0.6c1.8-0.8,2.8-2.2,2.8-4.3C63,610.9,62.4,609.7,61.2,608.8z"></path> <path class="st1" d="M47.2,600.1v-2.8h3.1c-0.6-0.2-1.3-0.8-2.2-1.7c-0.9-0.9-1.3-2-1.3-3.1c0-0.1,0-0.1,0-0.3s0-0.4,0.1-0.7h3.2 c0,0.2-0.1,0.3-0.1,0.5s0,0.3,0,0.5c0,1.5,0.5,2.7,1.5,3.5c1,0.8,2.1,1.2,3.3,1.2H65v3H47.2z"></path> <path class="st1" d="M49,575.2c1.5-1.6,3.8-2.4,6.7-2.4c2.9,0,5.2,0.7,7.1,2.1c1.9,1.4,2.8,3.5,2.8,6.4c0,2.4-0.8,4.4-2.5,5.8 s-3.9,2.1-6.7,2.1c-3,0-5.4-0.8-7.1-2.3c-1.8-1.5-2.7-3.5-2.7-6.1C46.7,578.7,47.5,576.8,49,575.2z M60.8,577.1 c-1.5-0.7-3.2-1.1-5-1.1c-1.7,0-3,0.3-4,0.8c-1.6,0.8-2.5,2.3-2.5,4.3c0,1.8,0.7,3.1,2.1,3.9c1.4,0.8,3.1,1.2,5,1.2 c1.9,0,3.5-0.4,4.7-1.2c1.3-0.8,1.9-2.1,1.9-3.9C63.1,579.1,62.3,577.8,60.8,577.1z"></path> <path class="st1" d="M47.2,567l14.5-4.7l-14.5-4.9V554l17.8,6.7v3.2l-17.8,6.6V567z"></path> <path class="st1" d="M47.7,539.8c0.6-1.2,1.4-2.1,2.3-2.7c0.9-0.6,1.9-1,3.1-1.2c0.8-0.2,2.1-0.3,3.9-0.3v12.9 c1.8-0.1,3.3-0.5,4.4-1.3s1.6-2,1.6-3.7c0-1.5-0.5-2.8-1.6-3.7c-0.6-0.5-1.3-0.9-2.1-1.1v-2.9c0.7,0.1,1.4,0.3,2.2,0.8 c0.8,0.4,1.5,0.9,2,1.5c0.9,0.9,1.5,2,1.8,3.3c0.2,0.7,0.3,1.5,0.3,2.4c0,2.2-0.8,4.1-2.4,5.6c-1.6,1.5-3.9,2.3-6.8,2.3 c-2.9,0-5.2-0.8-7-2.3c-1.8-1.5-2.7-3.6-2.7-6C46.8,542.2,47.1,541,47.7,539.8z M54.7,538.7c-1.3,0.1-2.3,0.4-3.1,0.8 c-1.4,0.8-2.2,2.2-2.2,4.1c0,1.4,0.5,2.5,1.5,3.4c1,0.9,2.2,1.4,3.8,1.5V538.7z"></path> <path class="st1" d="M47.2,531.1v-3h2.5c-0.9-0.7-1.5-1.4-1.9-1.9c-0.7-1-1-2.1-1-3.4c0-1.4,0.3-2.6,1-3.4c0.4-0.5,1-0.9,1.8-1.3 c-1-0.7-1.7-1.4-2.1-2.3c-0.5-0.9-0.7-1.9-0.7-3c0-2.4,0.9-4,2.6-4.9c0.9-0.5,2.2-0.7,3.8-0.7H65v3.1H52.6c-1.2,0-2,0.3-2.4,0.9 c-0.4,0.6-0.7,1.3-0.7,2.2c0,1.2,0.4,2.2,1.2,3s2.1,1.3,3.9,1.3H65v3H53.4c-1.2,0-2.1,0.1-2.6,0.4c-0.8,0.5-1.2,1.3-1.2,2.5 c0,1.1,0.4,2.2,1.3,3.1c0.9,0.9,2.5,1.4,4.7,1.4H65v3H47.2z"></path> <path class="st1" d="M47.7,491.1c0.6-1.2,1.4-2.1,2.3-2.7c0.9-0.6,1.9-1,3.1-1.2c0.8-0.2,2.1-0.3,3.9-0.3v12.9 c1.8-0.1,3.3-0.5,4.4-1.3s1.6-2,1.6-3.7c0-1.5-0.5-2.8-1.6-3.7c-0.6-0.5-1.3-0.9-2.1-1.1v-2.9c0.7,0.1,1.4,0.3,2.2,0.8 c0.8,0.4,1.5,0.9,2,1.5c0.9,0.9,1.5,2,1.8,3.3c0.2,0.7,0.3,1.5,0.3,2.4c0,2.2-0.8,4.1-2.4,5.6c-1.6,1.5-3.9,2.3-6.8,2.3 c-2.9,0-5.2-0.8-7-2.3c-1.8-1.5-2.7-3.6-2.7-6C46.8,493.5,47.1,492.3,47.7,491.1z M54.7,490.1c-1.3,0.1-2.3,0.4-3.1,0.8 c-1.4,0.8-2.2,2.2-2.2,4.1c0,1.4,0.5,2.5,1.5,3.4c1,0.9,2.2,1.4,3.8,1.5V490.1z"></path> <path class="st1" d="M47.2,482.5v-2.8h2.5c-1-0.8-1.8-1.7-2.2-2.7c-0.5-0.9-0.7-2-0.7-3.1c0-2.5,0.9-4.2,2.6-5.1 c1-0.5,2.3-0.7,4.1-0.7H65v3H53.8c-1.1,0-2,0.2-2.6,0.5c-1.1,0.5-1.7,1.5-1.7,2.9c0,0.7,0.1,1.3,0.2,1.7c0.2,0.8,0.7,1.5,1.5,2.2 c0.6,0.5,1.2,0.8,1.8,1c0.6,0.1,1.5,0.2,2.7,0.2H65v3H47.2z"></path> <path class="st1" d="M42.3,462.3v-3h5v-2.8h2.4v2.8h11.6c0.6,0,1-0.2,1.2-0.6c0.1-0.2,0.2-0.6,0.2-1.2c0-0.1,0-0.3,0-0.5 c0-0.2,0-0.4-0.1-0.6H65c0.1,0.3,0.2,0.7,0.2,1.1c0,0.4,0.1,0.8,0.1,1.2c0,1.4-0.4,2.3-1.1,2.8c-0.7,0.5-1.6,0.7-2.8,0.7H49.7v2.4 h-2.4v-2.4H42.3z"></path> <path class="st1" d="M59.4,450.9c1-0.1,1.8-0.3,2.3-0.8c1-0.8,1.4-2.1,1.4-4c0-1.1-0.2-2.1-0.7-3c-0.5-0.9-1.2-1.3-2.2-1.3 c-0.8,0-1.3,0.3-1.7,1c-0.2,0.4-0.5,1.3-0.8,2.6l-0.6,2.4c-0.4,1.5-0.8,2.7-1.3,3.4c-0.8,1.3-1.9,2-3.4,2c-1.7,0-3-0.6-4.1-1.8 c-1-1.2-1.6-2.9-1.6-5c0-2.7,0.8-4.7,2.4-5.9c1-0.8,2.1-1.1,3.2-1.1v2.8c-0.7,0.1-1.3,0.3-1.8,0.7c-0.8,0.7-1.2,1.9-1.2,3.7 c0,1.2,0.2,2,0.6,2.6c0.4,0.6,1,0.9,1.7,0.9c0.8,0,1.4-0.4,1.9-1.2c0.3-0.5,0.5-1.1,0.7-2l0.5-2c0.5-2.2,1-3.7,1.5-4.4 c0.8-1.2,2-1.7,3.6-1.7c1.6,0,2.9,0.6,4.1,1.8s1.7,3.1,1.7,5.6c0,2.7-0.6,4.6-1.8,5.7c-1.2,1.1-2.7,1.7-4.5,1.8V450.9z"></path> </g> <g class="st0"> <path class="st2" d="M779.3,764.6l1.1-2.1c1.2,1,2.4,1.7,3.7,2.2c1.2,0.4,2.7,0.6,4.4,0.6c1.9,0,3.5-0.4,4.5-1.1 c1.1-0.8,1.6-1.8,1.6-3.2c0-0.8-0.3-1.5-0.8-2s-1.2-0.9-2-1.2c-0.8-0.3-1.9-0.6-3.3-0.9c-1.9-0.4-3.4-0.8-4.6-1.3 c-1.2-0.5-2.2-1.2-2.9-2.1s-1.1-2.1-1.1-3.5c0-1.4,0.4-2.6,1.1-3.7s1.8-1.9,3.1-2.5s2.9-0.9,4.6-0.9c1.7,0,3.2,0.3,4.7,0.8 c1.5,0.5,2.7,1.3,3.7,2.3l-1.1,2.1c-1.1-1-2.3-1.7-3.5-2.1c-1.2-0.5-2.4-0.7-3.8-0.7c-1.9,0-3.4,0.4-4.4,1.2s-1.6,1.9-1.6,3.3 c0,1.2,0.5,2.1,1.4,2.8c0.9,0.6,2.4,1.1,4.3,1.6c2.1,0.5,3.7,1,4.9,1.4c1.2,0.4,2.2,1.1,3,1.9c0.8,0.9,1.2,2,1.2,3.4 c0,1.4-0.4,2.6-1.1,3.6s-1.8,1.8-3.1,2.4c-1.3,0.6-2.9,0.9-4.7,0.9C784.6,767.6,781.6,766.6,779.3,764.6z"></path> <path class="st2" d="M805.8,752.4v9.3c0,1.3,0.3,2.2,0.8,2.7c0.5,0.5,1.3,0.8,2.2,0.8c0.6,0,1.2-0.1,1.8-0.3v2.3 c-0.7,0.2-1.5,0.3-2.4,0.3c-1.6,0-2.9-0.5-3.8-1.4s-1.4-2.3-1.4-4.1v-9.7h-3.3v-2.2h3.3v-4.4l2.8-1v5.4h4.9v2.2H805.8z"></path> <path class="st2" d="M829.8,750.3v17.1h-2.7v-3.1c-0.5,1.1-1.3,1.9-2.3,2.5s-2.2,0.9-3.5,0.9c-1.5,0-2.9-0.4-4-1.1s-2-1.8-2.7-3.1 s-0.9-2.9-0.9-4.6c0-1.8,0.3-3.3,1-4.7c0.6-1.3,1.5-2.4,2.7-3.1s2.5-1.1,4-1.1c1.3,0,2.5,0.3,3.5,0.9c1,0.6,1.8,1.4,2.3,2.5v-3 H829.8z M825.7,763.6c0.9-1.1,1.4-2.8,1.4-4.9c0-2.1-0.5-3.7-1.4-4.9c-0.9-1.1-2.2-1.7-3.9-1.7c-1.7,0-3,0.6-3.9,1.8 c-0.9,1.2-1.4,2.8-1.4,4.9c0,2.1,0.5,3.7,1.4,4.8c0.9,1.1,2.2,1.7,3.9,1.7C823.5,765.3,824.8,764.8,825.7,763.6z"></path> <path class="st2" d="M839.5,752.4v9.3c0,1.3,0.3,2.2,0.8,2.7s1.3,0.8,2.2,0.8c0.6,0,1.2-0.1,1.8-0.3v2.3c-0.7,0.2-1.5,0.3-2.4,0.3 c-1.6,0-2.9-0.5-3.8-1.4c-0.9-0.9-1.4-2.3-1.4-4.1v-9.7h-3.3v-2.2h3.3v-4.4l2.8-1v5.4h4.9v2.2H839.5z"></path> <path class="st2" d="M851.6,743v3.1h-3.4V743H851.6z M848.5,750.3h2.8v17.1h-2.8V750.3z"></path> <path class="st2" d="M860.1,766.5c-1.2-0.7-2.2-1.8-2.9-3.1c-0.7-1.3-1-2.9-1-4.6c0-1.8,0.3-3.3,1-4.7s1.6-2.4,2.9-3.1 c1.3-0.7,2.7-1.1,4.4-1.1c1.2,0,2.3,0.2,3.3,0.6c1.1,0.4,2,0.9,2.7,1.6l-0.9,2c-0.9-0.7-1.7-1.2-2.5-1.5c-0.8-0.3-1.6-0.5-2.5-0.5 c-1.7,0-3.1,0.6-4.1,1.8c-1,1.2-1.5,2.8-1.5,4.9c0,2.1,0.5,3.7,1.5,4.8c1,1.1,2.4,1.7,4.1,1.7c0.8,0,1.7-0.2,2.5-0.5 c0.8-0.3,1.6-0.8,2.5-1.5l0.9,2c-0.7,0.7-1.6,1.2-2.7,1.6c-1.1,0.4-2.2,0.6-3.4,0.6C862.8,767.6,861.4,767.2,860.1,766.5z"></path> </g> <g class="st0"> <path class="st1" d="M156.1,169.7v2.3h-13.5v-2.3h5.3v-18.4l-5,3.2v-2.7l6.2-3.9h1.6v21.9H156.1z"></path> <path class="st1" d="M162.8,160.4c-1-1.2-1.5-3.1-1.5-5.5c0-2.4,0.5-4.3,1.5-5.5c1-1.2,2.4-1.9,4.3-1.9c1.8,0,3.3,0.6,4.3,1.9 c1,1.2,1.5,3.1,1.5,5.5c0,2.4-0.5,4.3-1.5,5.5c-1,1.2-2.5,1.9-4.3,1.9C165.3,162.3,163.9,161.7,162.8,160.4z M169.6,159 c0.5-0.9,0.8-2.2,0.8-4.1c0-1.9-0.3-3.2-0.8-4.1c-0.5-0.9-1.4-1.3-2.5-1.3c-1.1,0-1.9,0.4-2.5,1.3c-0.5,0.9-0.8,2.2-0.8,4.1 c0,1.9,0.3,3.3,0.8,4.1c0.5,0.9,1.4,1.3,2.5,1.3C168.3,160.3,169.1,159.9,169.6,159z M167,172l14-24.2h2.7l-14,24.2H167z M179.3,170.4c-1-1.2-1.5-3.1-1.5-5.5s0.5-4.3,1.5-5.5c1-1.2,2.4-1.9,4.3-1.9s3.3,0.6,4.3,1.9c1,1.2,1.5,3.1,1.5,5.5 s-0.5,4.3-1.5,5.5c-1,1.2-2.5,1.9-4.3,1.9S180.3,171.6,179.3,170.4z M186.1,169c0.5-0.9,0.8-2.2,0.8-4.1c0-1.9-0.3-3.2-0.8-4.1 c-0.5-0.9-1.4-1.3-2.5-1.3c-1.1,0-2,0.4-2.5,1.3c-0.5,0.9-0.8,2.2-0.8,4.1c0,1.9,0.3,3.3,0.8,4.1c0.5,0.9,1.4,1.3,2.5,1.3 C184.8,170.3,185.6,169.8,186.1,169z"></path> <path class="st1" d="M216.8,155.6c1.2,0.7,2.1,1.8,2.7,3.1c0.6,1.3,1,2.9,1,4.6c0,1.8-0.3,3.3-1,4.7c-0.6,1.3-1.5,2.4-2.7,3.1 c-1.2,0.7-2.5,1.1-4,1.1c-1.3,0-2.5-0.3-3.5-0.9c-1-0.6-1.8-1.4-2.3-2.5v3.2h-2.8v-25h2.8v10.9c0.5-1.1,1.3-2,2.3-2.5 c1-0.6,2.2-0.9,3.5-0.9C214.3,154.5,215.6,154.9,216.8,155.6z M216.2,168.2c0.9-1.2,1.4-2.8,1.4-4.9c0-2.1-0.5-3.7-1.4-4.8 c-0.9-1.1-2.2-1.7-3.9-1.7c-1.7,0-3,0.6-3.9,1.7c-0.9,1.1-1.4,2.8-1.4,4.9c0,2.1,0.5,3.7,1.4,4.9c0.9,1.1,2.2,1.7,3.9,1.7 C214,170,215.3,169.4,216.2,168.2z"></path> <path class="st1" d="M239.7,163.4h-12.5c0,2.2,0.5,3.8,1.5,4.9c1,1.1,2.4,1.7,4.3,1.7c2,0,3.8-0.7,5.5-2l0.9,2 c-0.7,0.7-1.7,1.3-2.9,1.7c-1.2,0.4-2.4,0.6-3.6,0.6c-2.7,0-4.8-0.8-6.3-2.4c-1.5-1.6-2.3-3.7-2.3-6.5c0-1.7,0.3-3.3,1-4.6 c0.7-1.3,1.6-2.4,2.9-3.1c1.2-0.7,2.6-1.1,4.2-1.1c2.3,0,4,0.7,5.3,2.2c1.3,1.5,1.9,3.5,1.9,6.1V163.4z M229,157.9 c-0.9,0.9-1.5,2.1-1.7,3.6h10c-0.1-1.6-0.6-2.8-1.4-3.7c-0.8-0.8-1.9-1.3-3.3-1.3C231,156.6,229.9,157.1,229,157.9z"></path> <path class="st1" d="M248.2,157.1v9.3c0,1.3,0.3,2.2,0.8,2.7c0.5,0.5,1.3,0.8,2.2,0.8c0.6,0,1.2-0.1,1.8-0.3v2.3 c-0.7,0.2-1.5,0.3-2.4,0.3c-1.6,0-2.9-0.5-3.8-1.4c-0.9-0.9-1.4-2.3-1.4-4.1v-9.7h-3.3v-2.2h3.3v-4.4l2.8-1v5.4h4.9v2.2H248.2z"></path> <path class="st1" d="M260.9,157.1v9.3c0,1.3,0.3,2.2,0.8,2.7c0.5,0.5,1.3,0.8,2.2,0.8c0.6,0,1.2-0.1,1.8-0.3v2.3 c-0.7,0.2-1.5,0.3-2.4,0.3c-1.6,0-2.9-0.5-3.8-1.4c-0.9-0.9-1.4-2.3-1.4-4.1v-9.7h-3.3v-2.2h3.3v-4.4l2.8-1v5.4h4.9v2.2H260.9z"></path> <path class="st1" d="M284.1,163.4h-12.5c0,2.2,0.5,3.8,1.5,4.9c1,1.1,2.4,1.7,4.3,1.7c2,0,3.8-0.7,5.5-2l0.9,2 c-0.7,0.7-1.7,1.3-2.9,1.7c-1.2,0.4-2.4,0.6-3.6,0.6c-2.7,0-4.8-0.8-6.3-2.4c-1.5-1.6-2.3-3.7-2.3-6.5c0-1.7,0.3-3.3,1-4.6 c0.7-1.3,1.6-2.4,2.9-3.1c1.2-0.7,2.6-1.1,4.2-1.1c2.3,0,4,0.7,5.3,2.2c1.3,1.5,1.9,3.5,1.9,6.1V163.4z M273.4,157.9 c-0.9,0.9-1.5,2.1-1.7,3.6h10c-0.1-1.6-0.6-2.8-1.4-3.7c-0.8-0.8-1.9-1.3-3.3-1.3C275.5,156.6,274.3,157.1,273.4,157.9z"></path> <path class="st1" d="M298.6,154.7l-0.1,2.5c-0.5-0.2-1.1-0.3-1.8-0.3c-1.7,0-2.9,0.5-3.7,1.5s-1.2,2.3-1.2,3.8v9.8H289v-12.3 c0-1.8-0.1-3.4-0.3-4.8h2.6l0.3,3.2c0.4-1.2,1.1-2,2.1-2.7c1-0.6,2-0.9,3.3-0.9C297.6,154.5,298.1,154.6,298.6,154.7z"></path> <path class="st1" d="M326,163.4h-12.5c0,2.2,0.5,3.8,1.5,4.9c1,1.1,2.4,1.7,4.3,1.7c2,0,3.8-0.7,5.5-2l0.9,2 c-0.7,0.7-1.7,1.3-2.9,1.7c-1.2,0.4-2.4,0.6-3.6,0.6c-2.7,0-4.8-0.8-6.3-2.4c-1.5-1.6-2.3-3.7-2.3-6.5c0-1.7,0.3-3.3,1-4.6 c0.7-1.3,1.6-2.4,2.9-3.1c1.2-0.7,2.6-1.1,4.2-1.1c2.3,0,4,0.7,5.3,2.2c1.3,1.5,1.9,3.5,1.9,6.1V163.4z M315.2,157.9 c-0.9,0.9-1.5,2.1-1.7,3.6h10c-0.1-1.6-0.6-2.8-1.4-3.7c-0.8-0.8-1.9-1.3-3.3-1.3C317.3,156.6,316.1,157.1,315.2,157.9z"></path> <path class="st1" d="M345.7,154.9l-7.4,17.1h-2.6l-7.3-17.1h2.9l5.8,14.1l5.8-14.1H345.7z"></path> <path class="st1" d="M363.5,163.4H351c0,2.2,0.5,3.8,1.5,4.9c1,1.1,2.4,1.7,4.3,1.7c2,0,3.8-0.7,5.5-2l0.9,2 c-0.7,0.7-1.7,1.3-2.9,1.7c-1.2,0.4-2.4,0.6-3.6,0.6c-2.7,0-4.8-0.8-6.3-2.4c-1.5-1.6-2.3-3.7-2.3-6.5c0-1.7,0.3-3.3,1-4.6 c0.7-1.3,1.6-2.4,2.9-3.1c1.2-0.7,2.6-1.1,4.2-1.1c2.3,0,4,0.7,5.3,2.2c1.3,1.5,1.9,3.5,1.9,6.1V163.4z M352.8,157.9 c-0.9,0.9-1.5,2.1-1.7,3.6h10c-0.1-1.6-0.6-2.8-1.4-3.7c-0.8-0.8-1.9-1.3-3.3-1.3C354.9,156.6,353.7,157.1,352.8,157.9z"></path> <path class="st1" d="M378,154.7l-0.1,2.5c-0.5-0.2-1.1-0.3-1.8-0.3c-1.7,0-2.9,0.5-3.7,1.5s-1.2,2.3-1.2,3.8v9.8h-2.8v-12.3 c0-1.8-0.1-3.4-0.3-4.8h2.6l0.3,3.2c0.4-1.2,1.1-2,2.1-2.7c1-0.6,2-0.9,3.3-0.9C377,154.5,377.5,154.6,378,154.7z"></path> <path class="st1" d="M397.5,154.9l-8,18.7c-0.8,1.9-1.9,3.4-3.2,4.3s-2.8,1.5-4.7,1.9l-0.6-2.1c1.6-0.4,2.8-0.8,3.7-1.4 c0.8-0.6,1.5-1.5,2.1-2.8l0.7-1.5l-7.2-16.9h2.9l5.8,14.1l5.8-14.1H397.5z"></path> <path class="st1" d="M425.9,147v25h-2.7v-3.1c-0.5,1.1-1.3,1.9-2.3,2.5c-1,0.6-2.2,0.9-3.5,0.9c-1.5,0-2.8-0.4-4-1.1 s-2-1.8-2.7-3.1c-0.6-1.3-1-2.9-1-4.7c0-1.8,0.3-3.3,0.9-4.6c0.6-1.3,1.5-2.4,2.7-3.1c1.2-0.7,2.5-1.1,4-1.1c1.3,0,2.5,0.3,3.5,0.9 c1,0.6,1.7,1.4,2.2,2.4V147H425.9z M421.8,168.2c0.9-1.1,1.4-2.8,1.4-4.9c0-2.1-0.5-3.7-1.4-4.8c-0.9-1.1-2.2-1.7-3.9-1.7 c-1.7,0-3,0.6-3.9,1.7c-0.9,1.1-1.4,2.7-1.4,4.8c0,2.1,0.5,3.7,1.4,4.9c0.9,1.2,2.2,1.8,3.9,1.8C419.6,170,420.9,169.4,421.8,168.2 z"></path> <path class="st1" d="M447,154.9V172h-2.7v-3.1c-0.5,1.1-1.3,1.9-2.3,2.5c-1,0.6-2.2,0.9-3.5,0.9c-1.5,0-2.9-0.4-4-1.1 s-2-1.8-2.7-3.1c-0.6-1.3-0.9-2.9-0.9-4.6c0-1.8,0.3-3.3,1-4.7s1.5-2.4,2.7-3.1s2.5-1.1,4-1.1c1.3,0,2.5,0.3,3.5,0.9 c1,0.6,1.8,1.4,2.3,2.5v-3H447z M442.9,168.2c0.9-1.1,1.4-2.8,1.4-4.9c0-2.1-0.5-3.7-1.4-4.9c-0.9-1.1-2.2-1.7-3.9-1.7 s-3,0.6-3.9,1.8c-0.9,1.2-1.4,2.8-1.4,4.9c0,2.1,0.5,3.7,1.4,4.8c0.9,1.1,2.2,1.7,3.9,1.7C440.7,170,442,169.4,442.9,168.2z"></path> <path class="st1" d="M468.1,154.9l-8,18.7c-0.8,1.9-1.9,3.4-3.2,4.3c-1.3,0.9-2.8,1.5-4.7,1.9l-0.6-2.1c1.6-0.4,2.8-0.8,3.7-1.4 c0.8-0.6,1.5-1.5,2.1-2.8l0.7-1.5l-7.2-16.9h2.9l5.8,14.1l5.8-14.1H468.1z"></path> <path class="st1" d="M496.6,169.7v2.3h-13.5v-2.3h5.3v-18.4l-5,3.2v-2.7l6.2-3.9h1.6v21.9H496.6z"></path> <path class="st1" d="M505.6,168.5v3.5h-3.5v-3.5H505.6z"></path> <path class="st1" d="M512.3,169.1c-1.4-2.1-2.2-5.2-2.2-9.2s0.7-7.1,2.2-9.2s3.5-3.1,6.3-3.1c2.8,0,4.9,1,6.3,3.1s2.2,5.2,2.2,9.2 c0,4.1-0.7,7.1-2.2,9.2c-1.4,2.1-3.5,3.2-6.3,3.2C515.9,172.3,513.8,171.2,512.3,169.1z M522.9,167.5c0.9-1.6,1.4-4.2,1.4-7.6 c0-3.4-0.5-5.9-1.4-7.5c-0.9-1.6-2.3-2.4-4.3-2.4c-1.9,0-3.3,0.8-4.3,2.4s-1.4,4.1-1.4,7.5s0.5,6,1.4,7.6s2.3,2.5,4.3,2.5 C520.6,169.9,522,169.1,522.9,167.5z"></path> <path class="st1" d="M547.4,169.7v2.3h-13.5v-2.3h5.3v-18.4l-5,3.2v-2.7l6.2-3.9h1.6v21.9H547.4z"></path> </g> <g class="st0"> <path class="st1" d="M558.3,154.9c0.4,0.6,0.7,1.3,0.7,2.2c0,1.2-0.4,2.2-1.3,2.9c-0.8,0.7-2,1.1-3.4,1.1c-0.9,0-1.8-0.2-2.7-0.5 c-0.8-0.3-1.6-0.7-2.1-1.3l0.6-1.3c1.3,1.1,2.7,1.6,4.1,1.6c1,0,1.8-0.2,2.3-0.7c0.5-0.5,0.8-1.1,0.8-2c0-1.7-1.1-2.6-3.3-2.6h-1.6 V153h1.3c1.1,0,1.9-0.2,2.4-0.7s0.8-1.1,0.8-2c0-0.8-0.2-1.4-0.7-1.8c-0.5-0.4-1.1-0.6-2-0.6c-1.4,0-2.7,0.5-4,1.6l-0.6-1.3 c0.6-0.5,1.3-1,2.1-1.3c0.8-0.3,1.7-0.5,2.6-0.5c1.3,0,2.3,0.3,3.1,1s1.2,1.5,1.2,2.6c0,0.8-0.2,1.5-0.6,2.1 c-0.4,0.6-1,1.1-1.7,1.3C557.3,153.9,557.9,154.3,558.3,154.9z"></path> <path class="st1" d="M569.8,152.6c0.7,0.4,1.2,0.9,1.6,1.6c0.4,0.7,0.6,1.5,0.6,2.3s-0.2,1.7-0.6,2.4s-0.9,1.2-1.6,1.6 s-1.5,0.6-2.4,0.6c-1.7,0-3-0.6-4-1.8c-0.9-1.2-1.4-2.9-1.4-5.1c0-1.6,0.2-3,0.7-4.1c0.4-1.1,1.1-2,1.9-2.6s1.8-0.9,3-0.9 c0.8,0,1.6,0.2,2.4,0.5c0.8,0.3,1.5,0.7,2,1.3l-0.6,1.3c-0.7-0.6-1.3-1-1.9-1.2s-1.2-0.4-1.9-0.4c-1.2,0-2.2,0.5-2.9,1.6 c-0.7,1.1-1,2.6-1,4.6v0.3c0.3-0.8,0.8-1.4,1.5-1.8c0.7-0.4,1.5-0.7,2.4-0.7C568.4,152,569.1,152.2,569.8,152.6z M569.5,158.9 c0.6-0.6,0.8-1.4,0.8-2.3c0-0.9-0.3-1.7-0.8-2.3c-0.6-0.6-1.3-0.9-2.2-0.9c-0.9,0-1.7,0.3-2.3,0.9s-0.9,1.3-0.9,2.3 c0,0.9,0.3,1.7,0.9,2.3s1.4,0.9,2.3,0.9C568.2,159.7,568.9,159.5,569.5,158.9z"></path> <path class="st1" d="M582.3,152.6c0.7,0.4,1.2,0.9,1.5,1.6c0.4,0.7,0.5,1.5,0.5,2.4s-0.2,1.7-0.6,2.4s-1,1.2-1.7,1.6 c-0.7,0.4-1.6,0.6-2.5,0.6c-0.9,0-1.7-0.2-2.6-0.5s-1.5-0.7-2.1-1.3l0.6-1.3c1.3,1.1,2.7,1.6,4.1,1.6c1,0,1.8-0.3,2.3-0.8 c0.6-0.6,0.8-1.3,0.8-2.3c0-0.9-0.3-1.7-0.8-2.3c-0.6-0.6-1.3-0.9-2.2-0.9c-1.4,0-2.4,0.6-3.3,1.7h-1.1v-8.3h8.5v1.4h-6.9v5.1 c0.8-0.8,1.8-1.1,3-1.1C580.8,152,581.6,152.2,582.3,152.6z"></path> </g> <g class="st0"> <path class="st1" d="M616.5,159.9h-16.7v-2.1h16.7V159.9z M616.5,166.7h-16.7v-2.1h16.7V166.7z"></path> <path class="st1" d="M645.4,161.7c0.7,1,1.1,2.3,1.1,3.8c0,2.1-0.7,3.8-2.1,5c-1.4,1.2-3.4,1.8-5.8,1.8c-1.6,0-3.1-0.3-4.5-0.8 c-1.4-0.5-2.7-1.3-3.7-2.2l1.1-2.1c2.2,1.9,4.6,2.8,7,2.8c1.7,0,3-0.4,3.9-1.2s1.3-1.9,1.3-3.4c0-3-1.9-4.5-5.6-4.5h-2.8v-2.3h2.2 c1.8,0,3.2-0.4,4.1-1.2c1-0.8,1.4-1.9,1.4-3.4c0-1.3-0.4-2.3-1.2-3c-0.8-0.7-1.9-1.1-3.3-1.1c-2.3,0-4.6,0.9-6.9,2.8l-1.1-2.1 c1-0.9,2.2-1.7,3.6-2.2c1.4-0.5,2.9-0.8,4.4-0.8c2.2,0,3.9,0.6,5.2,1.7c1.3,1.1,2,2.6,2,4.5c0,1.4-0.3,2.6-1,3.6 c-0.7,1-1.6,1.8-2.8,2.2C643.6,160,644.7,160.7,645.4,161.7z"></path> <path class="st1" d="M667.9,147.8v2.1L656.6,172h-3l11.3-21.9h-12.9v-2.3H667.9z"></path> <path class="st1" d="M676.5,168.5v3.5H673v-3.5H676.5z"></path> <path class="st1" d="M697.6,147.8v2.1L686.2,172h-3l11.3-21.9h-12.9v-2.3H697.6z"></path> <path class="st1" d="M718.1,161.8c0.9,1.1,1.3,2.3,1.3,3.8c0,2.1-0.8,3.7-2.3,4.9c-1.6,1.2-3.7,1.8-6.3,1.8s-4.8-0.6-6.3-1.8 c-1.6-1.2-2.3-2.8-2.3-4.9c0-1.5,0.4-2.7,1.3-3.8c0.9-1.1,2.1-1.8,3.7-2.2c-1.5-0.4-2.6-1.1-3.3-2.1c-0.8-1-1.2-2.1-1.2-3.5 c0-1.3,0.3-2.4,1-3.4c0.7-1,1.6-1.7,2.9-2.2s2.6-0.8,4.2-0.8c1.6,0,3,0.3,4.2,0.8c1.2,0.5,2.2,1.3,2.9,2.2c0.7,1,1,2.1,1,3.4 c0,1.3-0.4,2.5-1.2,3.5c-0.8,1-1.9,1.7-3.3,2.1C716,160,717.2,160.7,718.1,161.8z M715.1,168.8c1-0.8,1.5-1.9,1.5-3.4 c0-1.3-0.5-2.4-1.6-3.2s-2.5-1.3-4.3-1.5c-1.8,0.2-3.2,0.7-4.3,1.5c-1.1,0.8-1.6,1.9-1.6,3.2c0,1.5,0.5,2.6,1.5,3.4 c1,0.8,2.5,1.2,4.4,1.2S714.1,169.5,715.1,168.8z M706.8,157.3c1,0.8,2.3,1.3,3.9,1.5c1.6-0.2,2.9-0.7,3.9-1.5 c1-0.8,1.4-1.9,1.4-3.1c0-1.3-0.5-2.4-1.4-3.2s-2.2-1.2-3.9-1.2c-1.7,0-3,0.4-3.9,1.2c-0.9,0.8-1.4,1.8-1.4,3.2 C705.4,155.4,705.9,156.5,706.8,157.3z"></path> <path class="st1" d="M725.1,160.4c-1-1.2-1.5-3.1-1.5-5.5c0-2.4,0.5-4.3,1.5-5.5c1-1.2,2.4-1.9,4.3-1.9s3.3,0.6,4.3,1.9 c1,1.2,1.5,3.1,1.5,5.5c0,2.4-0.5,4.3-1.5,5.5c-1,1.2-2.5,1.9-4.3,1.9S726.1,161.7,725.1,160.4z M731.9,159 c0.5-0.9,0.8-2.2,0.8-4.1c0-1.9-0.3-3.2-0.8-4.1c-0.5-0.9-1.4-1.3-2.5-1.3c-1.1,0-1.9,0.4-2.5,1.3c-0.5,0.9-0.8,2.2-0.8,4.1 c0,1.9,0.3,3.3,0.8,4.1c0.5,0.9,1.4,1.3,2.5,1.3C730.5,160.3,731.3,159.9,731.9,159z M729.3,172l14-24.2h2.7l-14,24.2H729.3z M741.6,170.4c-1-1.2-1.5-3.1-1.5-5.5s0.5-4.3,1.5-5.5c1-1.2,2.4-1.9,4.3-1.9s3.3,0.6,4.3,1.9c1,1.2,1.5,3.1,1.5,5.5 s-0.5,4.3-1.5,5.5c-1,1.2-2.5,1.9-4.3,1.9S742.6,171.6,741.6,170.4z M748.4,169c0.5-0.9,0.8-2.2,0.8-4.1c0-1.9-0.3-3.2-0.8-4.1 c-0.5-0.9-1.4-1.3-2.5-1.3c-1.1,0-2,0.4-2.5,1.3c-0.5,0.9-0.8,2.2-0.8,4.1c0,1.9,0.3,3.3,0.8,4.1c0.5,0.9,1.4,1.3,2.5,1.3 C747,170.3,747.8,169.8,748.4,169z"></path> </g> <g class="st0"> <path class="st1" d="M155.8,238.7v2.3h-13.5v-2.3h5.3v-18.4l-5,3.2v-2.7l6.2-3.9h1.6v21.9H155.8z"></path> <path class="st1" d="M162.5,229.4c-1-1.2-1.5-3.1-1.5-5.5c0-2.4,0.5-4.3,1.5-5.5c1-1.2,2.4-1.9,4.3-1.9c1.8,0,3.3,0.6,4.3,1.9 c1,1.2,1.5,3.1,1.5,5.5c0,2.4-0.5,4.3-1.5,5.5c-1,1.2-2.5,1.9-4.3,1.9C165,231.3,163.5,230.7,162.5,229.4z M169.3,228 c0.5-0.9,0.8-2.2,0.8-4.1c0-1.9-0.3-3.2-0.8-4.1c-0.5-0.9-1.4-1.3-2.5-1.3c-1.1,0-1.9,0.4-2.5,1.3c-0.5,0.9-0.8,2.2-0.8,4.1 c0,1.9,0.3,3.3,0.8,4.1c0.5,0.9,1.4,1.3,2.5,1.3C167.9,229.3,168.8,228.9,169.3,228z M166.7,241l14-24.2h2.7l-14,24.2H166.7z M179,239.4c-1-1.2-1.5-3.1-1.5-5.5s0.5-4.3,1.5-5.5c1-1.2,2.4-1.9,4.3-1.9s3.3,0.6,4.3,1.9c1,1.2,1.5,3.1,1.5,5.5 s-0.5,4.3-1.5,5.5c-1,1.2-2.5,1.9-4.3,1.9S180,240.6,179,239.4z M185.8,238c0.5-0.9,0.8-2.2,0.8-4.1c0-1.9-0.3-3.2-0.8-4.1 c-0.5-0.9-1.4-1.3-2.5-1.3c-1.1,0-2,0.4-2.5,1.3c-0.5,0.9-0.8,2.2-0.8,4.1c0,1.9,0.3,3.3,0.8,4.1c0.5,0.9,1.4,1.3,2.5,1.3 C184.4,239.3,185.3,238.8,185.8,238z"></path> <path class="st1" d="M229.9,223.9l-6.3,17.1H221l-4.9-13.4l-4.9,13.4h-2.7l-6.3-17.1h2.9l4.8,13.8l5-13.8h2.4l4.9,13.8l4.9-13.8 H229.9z"></path> <path class="st1" d="M236.8,240.2c-1.2-0.7-2.2-1.8-2.8-3.1c-0.7-1.3-1-2.9-1-4.7s0.3-3.4,1-4.7c0.7-1.3,1.6-2.4,2.8-3.1 s2.6-1.1,4.2-1.1c1.6,0,3,0.4,4.2,1.1s2.2,1.8,2.8,3.1c0.7,1.3,1,2.9,1,4.7s-0.3,3.4-1,4.7c-0.7,1.3-1.6,2.4-2.8,3.1 s-2.6,1.1-4.2,1.1C239.5,241.2,238.1,240.9,236.8,240.2z M245,237.3c0.9-1.1,1.4-2.8,1.4-4.9c0-2.1-0.5-3.7-1.4-4.8 c-0.9-1.1-2.2-1.7-3.9-1.7c-1.7,0-3,0.6-3.9,1.7c-0.9,1.1-1.4,2.8-1.4,4.8c0,2.2,0.5,3.8,1.4,4.9s2.2,1.7,3.9,1.7 C242.8,239,244.1,238.4,245,237.3z"></path> <path class="st1" d="M263.7,223.7l-0.1,2.5c-0.5-0.2-1.1-0.3-1.8-0.3c-1.7,0-2.9,0.5-3.7,1.5s-1.2,2.3-1.2,3.8v9.8h-2.8v-12.3 c0-1.8-0.1-3.4-0.3-4.8h2.6l0.3,3.2c0.4-1.2,1.1-2,2.1-2.7c1-0.6,2-0.9,3.3-0.9C262.7,223.5,263.2,223.6,263.7,223.7z"></path> <path class="st1" d="M266,239l0.9-2c0.9,0.7,1.9,1.2,2.8,1.6c1,0.3,2,0.5,3.2,0.5c1.3,0,2.3-0.2,2.9-0.7c0.7-0.4,1-1.1,1-1.9 c0-0.7-0.2-1.2-0.7-1.6c-0.5-0.4-1.2-0.7-2.2-1l-2.9-0.7c-1.4-0.3-2.5-0.9-3.3-1.7c-0.8-0.8-1.2-1.8-1.2-2.9c0-1.5,0.6-2.7,1.8-3.7 c1.2-0.9,2.8-1.4,4.8-1.4c1.2,0,2.3,0.2,3.4,0.6c1.1,0.4,2,0.9,2.7,1.7l-0.9,2c-1.6-1.3-3.3-2-5.2-2c-1.2,0-2.2,0.2-2.8,0.7 c-0.7,0.5-1,1.1-1,2c0,0.7,0.2,1.3,0.6,1.7s1.1,0.7,2,1l2.9,0.7c1.6,0.4,2.8,0.9,3.5,1.7c0.8,0.8,1.2,1.8,1.2,3 c0,1.5-0.6,2.7-1.8,3.5c-1.2,0.9-2.8,1.3-4.9,1.3C269.9,241.2,267.6,240.5,266,239z"></path> <path class="st1" d="M298.9,232.4h-12.5c0,2.2,0.5,3.8,1.5,4.9c1,1.1,2.4,1.7,4.3,1.7c2,0,3.8-0.7,5.5-2l0.9,2 c-0.7,0.7-1.7,1.3-2.9,1.7c-1.2,0.4-2.4,0.6-3.6,0.6c-2.7,0-4.8-0.8-6.3-2.4c-1.5-1.6-2.3-3.7-2.3-6.5c0-1.7,0.3-3.3,1-4.6 c0.7-1.3,1.6-2.4,2.9-3.1c1.2-0.7,2.6-1.1,4.2-1.1c2.3,0,4,0.7,5.3,2.2c1.3,1.5,1.9,3.5,1.9,6.1V232.4z M288.2,226.9 c-0.9,0.9-1.5,2.1-1.7,3.6h10c-0.1-1.6-0.6-2.8-1.4-3.7c-0.8-0.8-1.9-1.3-3.3-1.3C290.2,225.6,289.1,226.1,288.2,226.9z"></path> <path class="st1" d="M327.7,232.4h-12.5c0,2.2,0.5,3.8,1.5,4.9c1,1.1,2.4,1.7,4.3,1.7c2,0,3.8-0.7,5.5-2l0.9,2 c-0.7,0.7-1.7,1.3-2.9,1.7c-1.2,0.4-2.4,0.6-3.6,0.6c-2.7,0-4.8-0.8-6.3-2.4c-1.5-1.6-2.3-3.7-2.3-6.5c0-1.7,0.3-3.3,1-4.6 c0.7-1.3,1.6-2.4,2.9-3.1c1.2-0.7,2.6-1.1,4.2-1.1c2.3,0,4,0.7,5.3,2.2c1.3,1.5,1.9,3.5,1.9,6.1V232.4z M317,226.9 c-0.9,0.9-1.5,2.1-1.7,3.6h10c-0.1-1.6-0.6-2.8-1.4-3.7c-0.8-0.8-1.9-1.3-3.3-1.3C319,225.6,317.9,226.1,317,226.9z"></path> <path class="st1" d="M347.4,223.9l-7.4,17.1h-2.6l-7.3-17.1h2.9l5.8,14.1l5.8-14.1H347.4z"></path> <path class="st1" d="M365.3,232.4h-12.5c0,2.2,0.5,3.8,1.5,4.9c1,1.1,2.4,1.7,4.3,1.7c2,0,3.8-0.7,5.5-2l0.9,2 c-0.7,0.7-1.7,1.3-2.9,1.7c-1.2,0.4-2.4,0.6-3.6,0.6c-2.7,0-4.8-0.8-6.3-2.4c-1.5-1.6-2.3-3.7-2.3-6.5c0-1.7,0.3-3.3,1-4.6 c0.7-1.3,1.6-2.4,2.9-3.1c1.2-0.7,2.6-1.1,4.2-1.1c2.3,0,4,0.7,5.3,2.2c1.3,1.5,1.9,3.5,1.9,6.1V232.4z M354.6,226.9 c-0.9,0.9-1.5,2.1-1.7,3.6h10c-0.1-1.6-0.6-2.8-1.4-3.7c-0.8-0.8-1.9-1.3-3.3-1.3C356.6,225.6,355.5,226.1,354.6,226.9z"></path> <path class="st1" d="M379.7,223.7l-0.1,2.5c-0.5-0.2-1.1-0.3-1.8-0.3c-1.7,0-2.9,0.5-3.7,1.5s-1.2,2.3-1.2,3.8v9.8h-2.8v-12.3 c0-1.8-0.1-3.4-0.3-4.8h2.6l0.3,3.2c0.4-1.2,1.1-2,2.1-2.7c1-0.6,2-0.9,3.3-0.9C378.7,223.5,379.2,223.6,379.7,223.7z"></path> <path class="st1" d="M399.2,223.9l-8,18.7c-0.8,1.9-1.9,3.4-3.2,4.3s-2.8,1.5-4.7,1.9l-0.6-2.1c1.6-0.4,2.8-0.8,3.7-1.4 c0.8-0.6,1.5-1.5,2.1-2.8l0.7-1.5l-7.2-16.9h2.9l5.8,14.1l5.8-14.1H399.2z"></path> <path class="st1" d="M427.6,216v25h-2.7v-3.1c-0.5,1.1-1.3,1.9-2.3,2.5c-1,0.6-2.2,0.9-3.5,0.9c-1.5,0-2.8-0.4-4-1.1 s-2-1.8-2.7-3.1c-0.6-1.3-1-2.9-1-4.7c0-1.8,0.3-3.3,0.9-4.6c0.6-1.3,1.5-2.4,2.7-3.1c1.2-0.7,2.5-1.1,4-1.1c1.3,0,2.5,0.3,3.5,0.9 c1,0.6,1.7,1.4,2.2,2.4V216H427.6z M423.6,237.2c0.9-1.1,1.4-2.8,1.4-4.9c0-2.1-0.5-3.7-1.4-4.8c-0.9-1.1-2.2-1.7-3.9-1.7 c-1.7,0-3,0.6-3.9,1.7c-0.9,1.1-1.4,2.7-1.4,4.8c0,2.1,0.5,3.7,1.4,4.9c0.9,1.2,2.2,1.8,3.9,1.8C421.4,239,422.7,238.4,423.6,237.2 z"></path> <path class="st1" d="M448.8,223.9V241H446v-3.1c-0.5,1.1-1.3,1.9-2.3,2.5c-1,0.6-2.2,0.9-3.5,0.9c-1.5,0-2.9-0.4-4-1.1 s-2-1.8-2.7-3.1c-0.6-1.3-0.9-2.9-0.9-4.6c0-1.8,0.3-3.3,1-4.7s1.5-2.4,2.7-3.1s2.5-1.1,4-1.1c1.3,0,2.5,0.3,3.5,0.9 c1,0.6,1.8,1.4,2.3,2.5v-3H448.8z M444.7,237.2c0.9-1.1,1.4-2.8,1.4-4.9c0-2.1-0.5-3.7-1.4-4.9c-0.9-1.1-2.2-1.7-3.9-1.7 s-3,0.6-3.9,1.8c-0.9,1.2-1.4,2.8-1.4,4.9c0,2.1,0.5,3.7,1.4,4.8c0.9,1.1,2.2,1.7,3.9,1.7C442.5,239,443.8,238.4,444.7,237.2z"></path> <path class="st1" d="M469.8,223.9l-8,18.7c-0.8,1.9-1.9,3.4-3.2,4.3c-1.3,0.9-2.8,1.5-4.7,1.9l-0.6-2.1c1.6-0.4,2.8-0.8,3.7-1.4 c0.8-0.6,1.5-1.5,2.1-2.8l0.7-1.5l-7.2-16.9h2.9l5.8,14.1l5.8-14.1H469.8z"></path> <path class="st1" d="M484.4,238.1c-1.4-2.1-2.2-5.2-2.2-9.2s0.7-7.1,2.2-9.2s3.5-3.1,6.3-3.1c2.8,0,4.9,1,6.3,3.1s2.2,5.2,2.2,9.2 c0,4.1-0.7,7.1-2.2,9.2c-1.4,2.1-3.5,3.2-6.3,3.2C487.9,241.3,485.8,240.2,484.4,238.1z M495,236.5c0.9-1.6,1.4-4.2,1.4-7.6 c0-3.4-0.5-5.9-1.4-7.5c-0.9-1.6-2.3-2.4-4.3-2.4c-1.9,0-3.3,0.8-4.3,2.4s-1.4,4.1-1.4,7.5s0.5,6,1.4,7.6s2.3,2.5,4.3,2.5 C492.6,238.9,494.1,238.1,495,236.5z"></path> <path class="st1" d="M507.3,237.5v3.5h-3.5v-3.5H507.3z"></path> <path class="st1" d="M526.4,219.6c1.6,2,2.4,4.9,2.4,8.7c0,4.1-0.8,7.3-2.5,9.6c-1.6,2.3-3.9,3.4-6.9,3.4c-1.4,0-2.7-0.3-4.1-0.8 c-1.3-0.5-2.5-1.3-3.5-2.2l1.1-2.1c1.2,1,2.3,1.7,3.3,2.1c1,0.4,2.1,0.7,3.2,0.7c2.1,0,3.7-0.9,4.8-2.8c1.1-1.9,1.7-4.5,1.7-7.8 v-0.4c-0.5,1.3-1.4,2.3-2.6,3c-1.2,0.7-2.5,1.1-4,1.1c-1.5,0-2.8-0.3-3.9-1c-1.1-0.6-2-1.6-2.7-2.7c-0.6-1.2-1-2.5-1-4s0.3-2.8,1-4 c0.7-1.2,1.6-2.1,2.8-2.8c1.2-0.7,2.5-1,4-1C522.6,216.5,524.8,217.5,526.4,219.6z M523.7,228.1c1-1,1.5-2.3,1.5-3.9 c0-1.6-0.5-2.9-1.5-3.9c-1-1-2.3-1.5-3.9-1.5c-1.5,0-2.8,0.5-3.7,1.5c-1,1-1.4,2.3-1.4,3.9c0,1.6,0.5,2.9,1.4,3.9 c1,1,2.2,1.5,3.8,1.5C521.4,229.6,522.7,229.1,523.7,228.1z"></path> <path class="st1" d="M547.5,219.6c1.6,2,2.4,4.9,2.4,8.7c0,4.1-0.8,7.3-2.5,9.6c-1.6,2.3-3.9,3.4-6.9,3.4c-1.4,0-2.7-0.3-4.1-0.8 c-1.3-0.5-2.5-1.3-3.5-2.2l1.1-2.1c1.2,1,2.3,1.7,3.3,2.1c1,0.4,2.1,0.7,3.2,0.7c2.1,0,3.7-0.9,4.8-2.8c1.1-1.9,1.7-4.5,1.7-7.8 v-0.4c-0.5,1.3-1.4,2.3-2.6,3c-1.2,0.7-2.5,1.1-4,1.1c-1.5,0-2.8-0.3-3.9-1c-1.1-0.6-2-1.6-2.7-2.7c-0.6-1.2-1-2.5-1-4s0.3-2.8,1-4 c0.7-1.2,1.6-2.1,2.8-2.8c1.2-0.7,2.5-1,4-1C543.7,216.5,545.9,217.5,547.5,219.6z M544.8,228.1c1-1,1.5-2.3,1.5-3.9 c0-1.6-0.5-2.9-1.5-3.9c-1-1-2.3-1.5-3.9-1.5c-1.5,0-2.8,0.5-3.7,1.5c-1,1-1.4,2.3-1.4,3.9c0,1.6,0.5,2.9,1.4,3.9 c1,1,2.2,1.5,3.8,1.5C542.5,229.6,543.8,229.1,544.8,228.1z"></path> </g> <g class="st0"> <path class="st1" d="M562.6,223.9c0.4,0.6,0.7,1.3,0.7,2.2c0,1.2-0.4,2.2-1.3,2.9c-0.8,0.7-2,1.1-3.4,1.1c-0.9,0-1.8-0.2-2.6-0.5 c-0.8-0.3-1.6-0.7-2.2-1.3l0.6-1.3c1.3,1.1,2.7,1.6,4.1,1.6c1,0,1.8-0.2,2.3-0.7c0.5-0.5,0.8-1.1,0.8-2c0-1.7-1.1-2.6-3.3-2.6h-1.6 V222h1.3c1.1,0,1.9-0.2,2.4-0.7c0.6-0.5,0.8-1.1,0.8-2c0-0.8-0.2-1.4-0.7-1.8c-0.5-0.4-1.1-0.6-2-0.6c-1.4,0-2.7,0.5-4,1.6 l-0.6-1.3c0.6-0.5,1.3-1,2.1-1.3s1.7-0.5,2.6-0.5c1.3,0,2.3,0.3,3.1,1s1.2,1.5,1.2,2.6c0,0.8-0.2,1.5-0.6,2.1 c-0.4,0.6-1,1.1-1.7,1.3C561.6,222.9,562.2,223.3,562.6,223.9z"></path> <path class="st1" d="M574.1,221.6c0.7,0.4,1.2,0.9,1.6,1.6c0.4,0.7,0.6,1.5,0.6,2.3s-0.2,1.7-0.6,2.4c-0.4,0.7-0.9,1.2-1.6,1.6 s-1.5,0.6-2.4,0.6c-1.7,0-3-0.6-4-1.8c-0.9-1.2-1.4-2.9-1.4-5.1c0-1.6,0.2-3,0.6-4.1s1.1-2,1.9-2.6c0.8-0.6,1.8-0.9,3-0.9 c0.8,0,1.6,0.2,2.4,0.5c0.8,0.3,1.5,0.7,2,1.3l-0.6,1.3c-0.7-0.6-1.3-1-1.9-1.2s-1.2-0.4-1.9-0.4c-1.2,0-2.2,0.5-2.9,1.6 c-0.7,1.1-1,2.6-1,4.6v0.3c0.3-0.8,0.8-1.4,1.5-1.8c0.7-0.4,1.5-0.7,2.4-0.7C572.6,221,573.4,221.2,574.1,221.6z M573.8,227.9 c0.6-0.6,0.8-1.4,0.8-2.3c0-0.9-0.3-1.7-0.9-2.3c-0.6-0.6-1.3-0.9-2.2-0.9c-0.9,0-1.7,0.3-2.3,0.9c-0.6,0.6-0.9,1.3-0.9,2.3 c0,0.9,0.3,1.7,0.9,2.3c0.6,0.6,1.4,0.9,2.3,0.9C572.5,228.7,573.2,228.5,573.8,227.9z"></path> <path class="st1" d="M586.5,221.6c0.7,0.4,1.2,0.9,1.5,1.6c0.4,0.7,0.5,1.5,0.5,2.4s-0.2,1.7-0.6,2.4c-0.4,0.7-1,1.2-1.7,1.6 s-1.6,0.6-2.5,0.6c-0.9,0-1.7-0.2-2.6-0.5c-0.8-0.3-1.5-0.7-2.1-1.3l0.6-1.3c1.3,1.1,2.7,1.6,4.1,1.6c1,0,1.8-0.3,2.3-0.8 c0.6-0.6,0.9-1.3,0.9-2.3c0-0.9-0.3-1.7-0.8-2.3c-0.6-0.6-1.3-0.9-2.2-0.9c-1.4,0-2.4,0.6-3.3,1.7h-1.1v-8.3h8.5v1.4h-6.9v5.1 c0.8-0.8,1.8-1.1,3-1.1C585.1,221,585.9,221.2,586.5,221.6z"></path> </g> <g class="st0"> <path class="st1" d="M616.2,228.9h-16.7v-2.1h16.7V228.9z M616.2,235.7h-16.7v-2.1h16.7V235.7z"></path> <path class="st1" d="M632.2,238.1c-1.4-2.1-2.2-5.2-2.2-9.2s0.7-7.1,2.2-9.2c1.4-2.1,3.5-3.1,6.3-3.1c2.8,0,4.9,1,6.3,3.1 s2.2,5.2,2.2,9.2c0,4.1-0.7,7.1-2.2,9.2c-1.4,2.1-3.5,3.2-6.3,3.2C635.8,241.3,633.7,240.2,632.2,238.1z M642.8,236.5 c0.9-1.6,1.4-4.2,1.4-7.6c0-3.4-0.5-5.9-1.4-7.5s-2.3-2.4-4.3-2.4c-1.9,0-3.3,0.8-4.3,2.4s-1.4,4.1-1.4,7.5s0.5,6,1.4,7.6 s2.3,2.5,4.3,2.5C640.5,238.9,641.9,238.1,642.8,236.5z"></path> <path class="st1" d="M655.1,237.5v3.5h-3.5v-3.5H655.1z"></path> <path class="st1" d="M661.9,238.1c-1.4-2.1-2.2-5.2-2.2-9.2s0.7-7.1,2.2-9.2s3.5-3.1,6.3-3.1c2.8,0,4.9,1,6.3,3.1s2.2,5.2,2.2,9.2 c0,4.1-0.7,7.1-2.2,9.2c-1.4,2.1-3.5,3.2-6.3,3.2C665.5,241.3,663.4,240.2,661.9,238.1z M672.5,236.5c0.9-1.6,1.4-4.2,1.4-7.6 c0-3.4-0.5-5.9-1.4-7.5c-0.9-1.6-2.3-2.4-4.3-2.4c-1.9,0-3.3,0.8-4.3,2.4s-1.4,4.1-1.4,7.5s0.5,6,1.4,7.6s2.3,2.5,4.3,2.5 S671.6,238.1,672.5,236.5z"></path> <path class="st1" d="M695.9,230.7c0.7,1,1.1,2.3,1.1,3.8c0,2.1-0.7,3.8-2.1,5c-1.4,1.2-3.4,1.8-5.8,1.8c-1.6,0-3.1-0.3-4.5-0.8 s-2.7-1.3-3.7-2.2l1.1-2.1c2.2,1.9,4.6,2.8,7,2.8c1.7,0,3-0.4,3.9-1.2s1.3-1.9,1.3-3.4c0-3-1.9-4.5-5.6-4.5h-2.8v-2.3h2.2 c1.8,0,3.2-0.4,4.1-1.2c1-0.8,1.4-1.9,1.4-3.4c0-1.3-0.4-2.3-1.2-3c-0.8-0.7-1.9-1.1-3.3-1.1c-2.3,0-4.6,0.9-6.9,2.8l-1.1-2.1 c1-0.9,2.2-1.7,3.6-2.2c1.4-0.5,2.9-0.8,4.4-0.8c2.2,0,3.9,0.6,5.2,1.7c1.3,1.1,2,2.6,2,4.5c0,1.4-0.3,2.6-1,3.6 c-0.7,1-1.6,1.8-2.8,2.2C694.1,229,695.2,229.7,695.9,230.7z"></path> <path class="st1" d="M703.7,229.4c-1-1.2-1.5-3.1-1.5-5.5c0-2.4,0.5-4.3,1.5-5.5c1-1.2,2.4-1.9,4.3-1.9s3.3,0.6,4.3,1.9 c1,1.2,1.5,3.1,1.5,5.5c0,2.4-0.5,4.3-1.5,5.5c-1,1.2-2.5,1.9-4.3,1.9S704.7,230.7,703.7,229.4z M710.5,228 c0.5-0.9,0.8-2.2,0.8-4.1c0-1.9-0.3-3.2-0.8-4.1c-0.5-0.9-1.4-1.3-2.5-1.3c-1.1,0-1.9,0.4-2.5,1.3c-0.5,0.9-0.8,2.2-0.8,4.1 c0,1.9,0.3,3.3,0.8,4.1c0.5,0.9,1.4,1.3,2.5,1.3C709.1,229.3,709.9,228.9,710.5,228z M707.9,241l14-24.2h2.7l-14,24.2H707.9z M720.2,239.4c-1-1.2-1.5-3.1-1.5-5.5s0.5-4.3,1.5-5.5c1-1.2,2.4-1.9,4.3-1.9s3.3,0.6,4.3,1.9c1,1.2,1.5,3.1,1.5,5.5 s-0.5,4.3-1.5,5.5c-1,1.2-2.5,1.9-4.3,1.9S721.2,240.6,720.2,239.4z M727,238c0.5-0.9,0.8-2.2,0.8-4.1c0-1.9-0.3-3.2-0.8-4.1 c-0.5-0.9-1.4-1.3-2.5-1.3c-1.1,0-2,0.4-2.5,1.3c-0.5,0.9-0.8,2.2-0.8,4.1c0,1.9,0.3,3.3,0.8,4.1c0.5,0.9,1.4,1.3,2.5,1.3 C725.6,239.3,726.5,238.8,727,238z"></path> </g> <g class="st0"> <path class="st3" d="M440.4,1055.3c-1-0.6-1.8-1.4-2.3-2.5c-0.5-1.1-0.8-2.4-0.8-3.9s0.3-2.8,0.8-3.9c0.5-1.1,1.3-1.9,2.3-2.5 c1-0.6,2.2-0.9,3.5-0.9c1,0,1.9,0.2,2.7,0.5c0.8,0.3,1.5,0.8,2.1,1.4l-0.6,1.3c-0.7-0.6-1.4-1-2-1.3c-0.7-0.3-1.4-0.4-2.2-0.4 c-1.6,0-2.8,0.5-3.6,1.5c-0.9,1-1.3,2.5-1.3,4.3c0,1.9,0.4,3.3,1.3,4.3c0.9,1,2.1,1.5,3.6,1.5c0.8,0,1.5-0.1,2.2-0.4 c0.7-0.3,1.3-0.7,2-1.3l0.6,1.3c-0.6,0.6-1.3,1-2.1,1.3c-0.8,0.3-1.7,0.5-2.7,0.5C442.6,1056.2,441.4,1055.9,440.4,1055.3z"></path> <path class="st3" d="M457.4,1045.8l0,1.5c-0.3-0.1-0.7-0.2-1.1-0.2c-1,0-1.7,0.3-2.2,0.9c-0.5,0.6-0.7,1.3-0.7,2.2v5.7h-1.6v-7.2 c0-1-0.1-2-0.2-2.8h1.5l0.2,1.9c0.3-0.7,0.7-1.2,1.2-1.6c0.6-0.4,1.2-0.5,1.9-0.5C456.8,1045.7,457.1,1045.7,457.4,1045.8z"></path> <path class="st3" d="M467.6,1050.9h-7.4c0,1.3,0.3,2.2,0.9,2.9c0.6,0.7,1.4,1,2.5,1c1.2,0,2.3-0.4,3.2-1.2l0.5,1.2 c-0.4,0.4-1,0.7-1.7,1c-0.7,0.2-1.4,0.4-2.1,0.4c-1.6,0-2.8-0.5-3.7-1.4c-0.9-0.9-1.3-2.2-1.3-3.8c0-1,0.2-1.9,0.6-2.7 c0.4-0.8,1-1.4,1.7-1.8c0.7-0.4,1.5-0.7,2.5-0.7c1.3,0,2.4,0.4,3.1,1.3c0.8,0.9,1.1,2.1,1.1,3.6V1050.9z M461.3,1047.7 c-0.5,0.5-0.9,1.2-1,2.1h5.9c-0.1-0.9-0.4-1.7-0.8-2.2s-1.1-0.7-2-0.7C462.5,1047,461.8,1047.2,461.3,1047.7z"></path> <path class="st3" d="M479.4,1041.3v14.7h-1.6v-1.8c-0.3,0.6-0.7,1.1-1.3,1.5c-0.6,0.3-1.3,0.5-2.1,0.5c-0.9,0-1.7-0.2-2.3-0.7 c-0.7-0.4-1.2-1.1-1.6-1.9c-0.4-0.8-0.6-1.7-0.6-2.8s0.2-2,0.5-2.7c0.4-0.8,0.9-1.4,1.6-1.8c0.7-0.4,1.5-0.6,2.3-0.6 c0.8,0,1.5,0.2,2.1,0.5c0.6,0.3,1,0.8,1.3,1.4v-6.4H479.4z M477,1053.8c0.5-0.7,0.8-1.6,0.8-2.9c0-1.2-0.3-2.2-0.8-2.8 c-0.5-0.7-1.3-1-2.3-1c-1,0-1.8,0.3-2.3,1c-0.6,0.7-0.8,1.6-0.8,2.8c0,1.2,0.3,2.2,0.8,2.9c0.6,0.7,1.3,1,2.3,1 C475.7,1054.8,476.4,1054.5,477,1053.8z"></path> <path class="st3" d="M484.8,1041.7v1.8h-2v-1.8H484.8z M482.9,1045.9h1.6v10.1h-1.6V1045.9z"></path> <path class="st3" d="M490.3,1047.2v5.5c0,0.7,0.2,1.3,0.5,1.6c0.3,0.3,0.7,0.5,1.3,0.5c0.4,0,0.7-0.1,1.1-0.2v1.4 c-0.4,0.1-0.9,0.2-1.4,0.2c-1,0-1.7-0.3-2.2-0.8s-0.8-1.3-0.8-2.4v-5.7h-2v-1.3h2v-2.6l1.6-0.6v3.2h2.9v1.3H490.3z"></path> <path class="st3" d="M497.3,1046.2v2.1h-2.1v-2.1H497.3z M497.3,1053.9v2.1h-2.1v-2.1H497.3z"></path> <path class="st3" d="M504.6,1058.1c0.6,0.1,1.1,0.2,1.4,0.2c0.7,0,1.2-0.2,1.4-0.6c0.3-0.4,0.4-1,0.4-2v-14h1.6v14 c0,1.4-0.2,2.4-0.8,3s-1.3,0.9-2.5,0.9c-0.5,0-1-0.1-1.7-0.2V1058.1z"></path> <path class="st3" d="M522.1,1045.9v10.1h-1.6v-1.8c-0.3,0.6-0.7,1.1-1.3,1.5c-0.6,0.3-1.3,0.5-2.1,0.5c-0.9,0-1.7-0.2-2.4-0.6 s-1.2-1-1.6-1.8c-0.4-0.8-0.5-1.7-0.5-2.7s0.2-2,0.6-2.8c0.4-0.8,0.9-1.4,1.6-1.8c0.7-0.4,1.5-0.7,2.3-0.7c0.8,0,1.5,0.2,2.1,0.5 c0.6,0.3,1,0.8,1.3,1.5v-1.7H522.1z M519.7,1053.8c0.5-0.7,0.8-1.6,0.8-2.9s-0.3-2.2-0.8-2.9c-0.5-0.7-1.3-1-2.3-1 c-1,0-1.8,0.3-2.3,1c-0.6,0.7-0.8,1.6-0.8,2.9s0.3,2.2,0.8,2.8c0.5,0.7,1.3,1,2.3,1C518.4,1054.8,519.2,1054.5,519.7,1053.8z"></path> <path class="st3" d="M540.1,1049.7v6.3h-1.6v-6.2c0-0.9-0.2-1.6-0.5-2.1c-0.3-0.4-0.9-0.6-1.6-0.6c-0.9,0-1.5,0.3-2,0.9 s-0.7,1.4-0.7,2.3v5.7h-1.6v-6.2c0-0.9-0.2-1.6-0.5-2c-0.3-0.4-0.9-0.7-1.6-0.7c-0.9,0-1.5,0.3-2,0.9c-0.5,0.6-0.7,1.4-0.7,2.3v5.7 h-1.6v-7.2c0-1-0.1-2-0.2-2.8h1.5l0.2,1.8c0.3-0.6,0.7-1.1,1.2-1.5c0.6-0.3,1.2-0.5,1.9-0.5c0.8,0,1.5,0.2,2,0.5 c0.5,0.3,0.9,0.8,1.1,1.5c0.3-0.6,0.8-1.1,1.4-1.4c0.6-0.4,1.3-0.5,2-0.5C539,1045.7,540.1,1047,540.1,1049.7z"></path> <path class="st3" d="M552.1,1050.9h-7.4c0,1.3,0.3,2.2,0.9,2.9c0.6,0.7,1.4,1,2.5,1c1.2,0,2.3-0.4,3.2-1.2l0.5,1.2 c-0.4,0.4-1,0.7-1.7,1c-0.7,0.2-1.4,0.4-2.1,0.4c-1.6,0-2.8-0.5-3.7-1.4s-1.3-2.2-1.3-3.8c0-1,0.2-1.9,0.6-2.7 c0.4-0.8,1-1.4,1.7-1.8c0.7-0.4,1.5-0.7,2.5-0.7c1.3,0,2.4,0.4,3.1,1.3c0.8,0.9,1.1,2.1,1.1,3.6V1050.9z M545.8,1047.7 c-0.5,0.5-0.9,1.2-1,2.1h5.9c-0.1-0.9-0.4-1.7-0.8-2.2c-0.5-0.5-1.1-0.7-2-0.7S546.3,1047.2,545.8,1047.7z"></path> <path class="st3" d="M554.3,1054.8l0.5-1.2c0.5,0.4,1.1,0.7,1.7,0.9c0.6,0.2,1.2,0.3,1.9,0.3c0.8,0,1.3-0.1,1.7-0.4 c0.4-0.3,0.6-0.6,0.6-1.1c0-0.4-0.1-0.7-0.4-1c-0.3-0.2-0.7-0.4-1.3-0.6l-1.7-0.4c-0.8-0.2-1.5-0.5-2-1c-0.5-0.5-0.7-1.1-0.7-1.7 c0-0.9,0.4-1.6,1.1-2.1c0.7-0.6,1.6-0.8,2.8-0.8c0.7,0,1.4,0.1,2,0.3s1.2,0.6,1.6,1l-0.5,1.2c-0.9-0.8-2-1.2-3-1.2 c-0.7,0-1.3,0.1-1.7,0.4c-0.4,0.3-0.6,0.7-0.6,1.2c0,0.4,0.1,0.7,0.4,1c0.2,0.2,0.6,0.4,1.2,0.6l1.7,0.4c0.9,0.2,1.6,0.5,2.1,1 c0.5,0.4,0.7,1,0.7,1.8c0,0.9-0.4,1.6-1.1,2.1c-0.7,0.5-1.7,0.8-2.9,0.8C556.7,1056.1,555.3,1055.7,554.3,1054.8z"></path> <path class="st3" d="M568.1,1055.3c-1-0.6-1.8-1.4-2.3-2.5c-0.5-1.1-0.8-2.4-0.8-3.9s0.3-2.8,0.8-3.9c0.5-1.1,1.3-1.9,2.3-2.5 c1-0.6,2.2-0.9,3.5-0.9c1,0,1.9,0.2,2.7,0.5s1.5,0.8,2.1,1.4l-0.6,1.3c-0.7-0.6-1.3-1-2-1.3c-0.7-0.3-1.4-0.4-2.2-0.4 c-1.6,0-2.8,0.5-3.6,1.5c-0.9,1-1.3,2.5-1.3,4.3c0,1.9,0.4,3.3,1.3,4.3c0.9,1,2.1,1.5,3.6,1.5c0.8,0,1.5-0.1,2.2-0.4 c0.7-0.3,1.3-0.7,2-1.3l0.6,1.3c-0.6,0.6-1.3,1-2.1,1.3s-1.7,0.5-2.7,0.5C570.2,1056.2,569.1,1055.9,568.1,1055.3z"></path> <path class="st3" d="M579.4,1041.3h1.6v14.7h-1.6V1041.3z"></path> <path class="st3" d="M593,1050.9h-7.4c0,1.3,0.3,2.2,0.9,2.9s1.4,1,2.5,1c1.2,0,2.3-0.4,3.2-1.2l0.5,1.2c-0.4,0.4-1,0.7-1.7,1 c-0.7,0.2-1.4,0.4-2.1,0.4c-1.6,0-2.8-0.5-3.7-1.4c-0.9-0.9-1.3-2.2-1.3-3.8c0-1,0.2-1.9,0.6-2.7c0.4-0.8,1-1.4,1.7-1.8 c0.7-0.4,1.5-0.7,2.5-0.7c1.3,0,2.4,0.4,3.1,1.3c0.8,0.9,1.1,2.1,1.1,3.6V1050.9z M586.7,1047.7c-0.5,0.5-0.9,1.2-1,2.1h5.9 c-0.1-0.9-0.4-1.7-0.8-2.2c-0.5-0.5-1.1-0.7-2-0.7C587.9,1047,587.2,1047.2,586.7,1047.7z"></path> <path class="st3" d="M604.7,1045.9v10.1h-1.6v-1.8c-0.3,0.6-0.7,1.1-1.3,1.5c-0.6,0.3-1.3,0.5-2.1,0.5c-0.9,0-1.7-0.2-2.3-0.6 c-0.7-0.4-1.2-1-1.6-1.8c-0.4-0.8-0.5-1.7-0.5-2.7s0.2-2,0.6-2.8c0.4-0.8,0.9-1.4,1.6-1.8c0.7-0.4,1.5-0.7,2.3-0.7 c0.8,0,1.5,0.2,2.1,0.5c0.6,0.3,1,0.8,1.3,1.5v-1.7H604.7z M602.3,1053.8c0.5-0.7,0.8-1.6,0.8-2.9s-0.3-2.2-0.8-2.9 c-0.5-0.7-1.3-1-2.3-1c-1,0-1.8,0.3-2.3,1c-0.6,0.7-0.8,1.6-0.8,2.9s0.3,2.2,0.8,2.8c0.5,0.7,1.3,1,2.3,1 C601,1054.8,601.8,1054.5,602.3,1053.8z"></path> <path class="st3" d="M613.9,1045.8l0,1.5c-0.3-0.1-0.7-0.2-1.1-0.2c-1,0-1.7,0.3-2.2,0.9c-0.5,0.6-0.7,1.3-0.7,2.2v5.7h-1.6v-7.2 c0-1-0.1-2-0.2-2.8h1.5l0.2,1.9c0.3-0.7,0.7-1.2,1.2-1.6c0.6-0.4,1.2-0.5,1.9-0.5C613.3,1045.7,613.6,1045.7,613.9,1045.8z"></path> <path class="st3" d="M617.3,1053.9v2.1h-2.1v-2.1H617.3z"></path> <path class="st3" d="M621.9,1055.5c-0.7-0.4-1.3-1-1.7-1.8c-0.4-0.8-0.6-1.7-0.6-2.7s0.2-2,0.6-2.8c0.4-0.8,1-1.4,1.7-1.8 c0.7-0.4,1.6-0.7,2.6-0.7c0.7,0,1.3,0.1,2,0.3c0.6,0.2,1.2,0.6,1.6,1l-0.5,1.2c-0.5-0.4-1-0.7-1.5-0.9c-0.5-0.2-1-0.3-1.5-0.3 c-1,0-1.8,0.3-2.4,1c-0.6,0.7-0.9,1.6-0.9,2.9c0,1.2,0.3,2.2,0.9,2.8c0.6,0.7,1.4,1,2.4,1c0.5,0,1-0.1,1.5-0.3 c0.5-0.2,1-0.5,1.5-0.9l0.5,1.2c-0.4,0.4-1,0.7-1.6,1c-0.6,0.2-1.3,0.3-2,0.3C623.4,1056.1,622.6,1055.9,621.9,1055.5z"></path> <path class="st3" d="M632.2,1055.5c-0.7-0.4-1.3-1-1.7-1.8c-0.4-0.8-0.6-1.7-0.6-2.8c0-1.1,0.2-2,0.6-2.8c0.4-0.8,1-1.4,1.7-1.8 c0.7-0.4,1.6-0.6,2.5-0.6c0.9,0,1.8,0.2,2.5,0.6c0.7,0.4,1.3,1,1.7,1.8c0.4,0.8,0.6,1.7,0.6,2.8c0,1.1-0.2,2-0.6,2.8 c-0.4,0.8-1,1.4-1.7,1.8c-0.7,0.4-1.6,0.6-2.5,0.6C633.7,1056.1,632.9,1055.9,632.2,1055.5z M637,1053.8c0.5-0.7,0.8-1.6,0.8-2.9 c0-1.2-0.3-2.2-0.8-2.8c-0.5-0.7-1.3-1-2.3-1c-1,0-1.8,0.3-2.3,1c-0.5,0.7-0.8,1.6-0.8,2.8c0,1.3,0.3,2.2,0.8,2.9 c0.5,0.7,1.3,1,2.3,1S636.4,1054.5,637,1053.8z"></path> <path class="st3" d="M656.9,1049.7v6.3h-1.6v-6.2c0-0.9-0.2-1.6-0.5-2.1c-0.3-0.4-0.9-0.6-1.6-0.6c-0.9,0-1.5,0.3-2,0.9 c-0.5,0.6-0.7,1.4-0.7,2.3v5.7h-1.6v-6.2c0-0.9-0.2-1.6-0.5-2c-0.3-0.4-0.9-0.7-1.6-0.7c-0.9,0-1.5,0.3-2,0.9 c-0.5,0.6-0.7,1.4-0.7,2.3v5.7h-1.6v-7.2c0-1-0.1-2-0.2-2.8h1.5l0.2,1.8c0.3-0.6,0.7-1.1,1.2-1.5s1.2-0.5,1.9-0.5 c0.8,0,1.5,0.2,2,0.5c0.5,0.3,0.9,0.8,1.1,1.5c0.3-0.6,0.8-1.1,1.4-1.4c0.6-0.4,1.3-0.5,2-0.5 C655.8,1045.7,656.9,1047,656.9,1049.7z"></path> </g> <path id="Path" class="st1" d="M97.7,309.6l0.1,0.1l11.2,20c0.5,1,0.2,2.2-0.8,2.7c-0.9,0.5-2.1,0.2-2.6-0.6l-0.1-0.1L98,318.4V914 h919.6l-13.3-7.5c-0.9-0.5-1.3-1.6-0.8-2.6l0.1-0.1c0.5-0.9,1.6-1.3,2.6-0.8l0.1,0.1l20,11.2c1.3,0.7,1.4,2.6,0.1,3.4l-0.1,0.1 l-20,11.2c-1,0.5-2.2,0.2-2.7-0.8c-0.5-0.9-0.2-2.1,0.6-2.6l0.1-0.1l13.3-7.5H96c-1.1,0-1.9-0.8-2-1.9l0-0.1V318.4l-7.5,13.3 c-0.5,0.9-1.6,1.3-2.6,0.8l-0.1-0.1c-0.9-0.5-1.3-1.6-0.8-2.6l0.1-0.1l11.2-20C95,308.5,96.8,308.4,97.7,309.6z"></path> <path id="Path-3" class="st1" d="M96.5,790.5c83.8,44.9,352.5,67.8,805.8,68.6l13.8,0l8.2,0l-8.7-4.9c-0.4-0.3-0.6-0.8-0.4-1.3 l0.1-0.1c0.3-0.4,0.8-0.6,1.3-0.4l0.1,0.1l12,6.8c0.6,0.4,0.7,1.3,0.1,1.7l-0.1,0.1l-12,6.7c-0.5,0.3-1.1,0.1-1.4-0.4 c-0.3-0.4-0.1-1,0.3-1.3l0.1-0.1l8.7-4.9l-8.2,0c-462-0.4-735.4-23.3-820.5-68.9c-0.5-0.3-0.7-0.9-0.4-1.4 C95.4,790.4,96,790.2,96.5,790.5z"></path> <path id="Path-4" class="st1" d="M839.6,311l0,0.1l3.4,13.4c0.1,0.5-0.2,1.1-0.7,1.2c-0.5,0.1-1-0.1-1.2-0.6l0-0.1l-2.4-9.6 l-2.2,7.9c-74.7,264.2-321.6,420.5-740.4,469c-0.5,0.1-1-0.3-1.1-0.9c-0.1-0.5,0.3-1,0.9-1.1c413.9-47.9,659.3-201.2,736.4-459.7 l2.3-7.9l2.1-7.9l-7,7.1c-0.4,0.4-0.9,0.4-1.3,0.1l-0.1-0.1c-0.4-0.4-0.4-0.9-0.1-1.3l0.1-0.1l9.7-9.8 C838.5,310.2,839.4,310.4,839.6,311z"></path> <line id="Line-2" class="st4" x1="96.6" y1="793.1" x2="928.4" y2="793.1"></line> <g class="st0"> <path class="st1" d="M675,367.7c0.7,1,1.1,2.3,1.1,3.8c0,2.1-0.7,3.8-2.1,5c-1.4,1.2-3.4,1.8-5.8,1.8c-1.6,0-3.1-0.3-4.5-0.8 c-1.4-0.5-2.7-1.3-3.7-2.2l1.1-2.1c2.2,1.9,4.6,2.8,7,2.8c1.7,0,3-0.4,3.9-1.2s1.3-1.9,1.3-3.4c0-3-1.9-4.5-5.6-4.5H665v-2.3h2.2 c1.8,0,3.2-0.4,4.1-1.2c1-0.8,1.4-1.9,1.4-3.4c0-1.3-0.4-2.3-1.2-3c-0.8-0.7-1.9-1.1-3.3-1.1c-2.3,0-4.6,0.9-6.9,2.8l-1.1-2.1 c1-0.9,2.2-1.7,3.6-2.2c1.4-0.5,2.9-0.8,4.4-0.8c2.2,0,3.9,0.6,5.2,1.7c1.3,1.1,2,2.6,2,4.5c0,1.4-0.3,2.6-1,3.6 c-0.7,1-1.6,1.8-2.8,2.2C673.2,366,674.3,366.7,675,367.7z"></path> <path class="st1" d="M697.6,353.8v2.1L686.2,378h-3l11.3-21.9h-12.9v-2.3H697.6z"></path> <path class="st1" d="M706.2,374.5v3.5h-3.5v-3.5H706.2z"></path> <path class="st1" d="M727.2,353.8v2.1L715.9,378h-3l11.3-21.9h-12.9v-2.3H727.2z"></path> <path class="st1" d="M747.7,367.8c0.9,1.1,1.3,2.3,1.3,3.8c0,2.1-0.8,3.7-2.3,4.9c-1.6,1.2-3.7,1.8-6.3,1.8s-4.8-0.6-6.3-1.8 c-1.6-1.2-2.3-2.8-2.3-4.9c0-1.5,0.4-2.7,1.3-3.8c0.9-1.1,2.1-1.8,3.7-2.2c-1.5-0.4-2.6-1.1-3.3-2.1c-0.8-1-1.2-2.1-1.2-3.5 c0-1.3,0.3-2.4,1-3.4c0.7-1,1.6-1.7,2.9-2.2s2.6-0.8,4.2-0.8c1.6,0,3,0.3,4.2,0.8c1.2,0.5,2.2,1.3,2.9,2.2c0.7,1,1,2.1,1,3.4 c0,1.3-0.4,2.5-1.2,3.5c-0.8,1-1.9,1.7-3.3,2.1C745.6,366,746.8,366.7,747.7,367.8z M744.7,374.8c1-0.8,1.5-1.9,1.5-3.4 c0-1.3-0.5-2.4-1.6-3.2s-2.5-1.3-4.3-1.5c-1.8,0.2-3.2,0.7-4.3,1.5c-1.1,0.8-1.6,1.9-1.6,3.2c0,1.5,0.5,2.6,1.5,3.4 c1,0.8,2.5,1.2,4.4,1.2S743.7,375.5,744.7,374.8z M736.5,363.3c1,0.8,2.3,1.3,3.9,1.5c1.6-0.2,2.9-0.7,3.9-1.5 c1-0.8,1.4-1.9,1.4-3.1c0-1.3-0.5-2.4-1.4-3.2s-2.2-1.2-3.9-1.2c-1.7,0-3,0.4-3.9,1.2c-0.9,0.8-1.4,1.8-1.4,3.2 C735,361.4,735.5,362.5,736.5,363.3z"></path> <path class="st1" d="M754.7,366.4c-1-1.2-1.5-3.1-1.5-5.5c0-2.4,0.5-4.3,1.5-5.5c1-1.2,2.4-1.9,4.3-1.9s3.3,0.6,4.3,1.9 c1,1.2,1.5,3.1,1.5,5.5c0,2.4-0.5,4.3-1.5,5.5c-1,1.2-2.5,1.9-4.3,1.9S755.7,367.7,754.7,366.4z M761.5,365 c0.5-0.9,0.8-2.2,0.8-4.1c0-1.9-0.3-3.2-0.8-4.1c-0.5-0.9-1.4-1.3-2.5-1.3c-1.1,0-1.9,0.4-2.5,1.3c-0.5,0.9-0.8,2.2-0.8,4.1 c0,1.9,0.3,3.3,0.8,4.1c0.5,0.9,1.4,1.3,2.5,1.3C760.1,366.3,761,365.9,761.5,365z M758.9,378l14-24.2h2.7l-14,24.2H758.9z M771.2,376.4c-1-1.2-1.5-3.1-1.5-5.5s0.5-4.3,1.5-5.5c1-1.2,2.4-1.9,4.3-1.9s3.3,0.6,4.3,1.9c1,1.2,1.5,3.1,1.5,5.5 s-0.5,4.3-1.5,5.5c-1,1.2-2.5,1.9-4.3,1.9S772.2,377.6,771.2,376.4z M778,375c0.5-0.9,0.8-2.2,0.8-4.1c0-1.9-0.3-3.2-0.8-4.1 c-0.5-0.9-1.4-1.3-2.5-1.3c-1.1,0-2,0.4-2.5,1.3c-0.5,0.9-0.8,2.2-0.8,4.1c0,1.9,0.3,3.3,0.8,4.1c0.5,0.9,1.4,1.3,2.5,1.3 C776.6,376.3,777.5,375.8,778,375z"></path> </g> <g class="st0"> <path class="st1" d="M549.9,404.6c1.2,0.7,2.1,1.8,2.7,3.1s1,2.9,1,4.6c0,1.8-0.3,3.3-1,4.7c-0.6,1.3-1.5,2.4-2.7,3.1 c-1.2,0.7-2.5,1.1-4,1.1c-1.3,0-2.5-0.3-3.5-0.9c-1-0.6-1.8-1.4-2.3-2.5v3.2h-2.8v-25h2.8v10.9c0.5-1.1,1.3-2,2.3-2.5 c1-0.6,2.2-0.9,3.5-0.9C547.5,403.5,548.8,403.9,549.9,404.6z M549.3,417.2c0.9-1.2,1.4-2.8,1.4-4.9c0-2.1-0.5-3.7-1.4-4.8 c-0.9-1.1-2.2-1.7-3.9-1.7c-1.7,0-3,0.6-3.9,1.7c-0.9,1.1-1.4,2.8-1.4,4.9c0,2.1,0.5,3.7,1.4,4.9s2.2,1.7,3.9,1.7 C547.1,419,548.4,418.4,549.3,417.2z"></path> <path class="st1" d="M572.9,412.4h-12.5c0,2.2,0.5,3.8,1.5,4.9c1,1.1,2.4,1.7,4.3,1.7c2,0,3.8-0.7,5.5-2l0.9,2 c-0.7,0.7-1.7,1.3-2.9,1.7c-1.2,0.4-2.4,0.6-3.6,0.6c-2.7,0-4.8-0.8-6.3-2.4c-1.5-1.6-2.3-3.7-2.3-6.5c0-1.7,0.3-3.3,1-4.6 s1.6-2.4,2.9-3.1c1.2-0.7,2.6-1.1,4.2-1.1c2.3,0,4,0.7,5.3,2.2c1.3,1.5,1.9,3.5,1.9,6.1V412.4z M562.1,406.9 c-0.9,0.9-1.5,2.1-1.7,3.6h10c-0.1-1.6-0.6-2.8-1.4-3.7c-0.8-0.8-1.9-1.3-3.3-1.3C564.2,405.6,563,406.1,562.1,406.9z"></path> <path class="st1" d="M581.3,406.1v9.3c0,1.3,0.3,2.2,0.8,2.7s1.3,0.8,2.2,0.8c0.6,0,1.2-0.1,1.8-0.3v2.3c-0.7,0.2-1.5,0.3-2.4,0.3 c-1.6,0-2.9-0.5-3.8-1.4c-0.9-0.9-1.4-2.3-1.4-4.1v-9.7h-3.3v-2.2h3.3v-4.4l2.8-1v5.4h4.9v2.2H581.3z"></path> <path class="st1" d="M594,406.1v9.3c0,1.3,0.3,2.2,0.8,2.7c0.5,0.5,1.3,0.8,2.2,0.8c0.6,0,1.2-0.1,1.8-0.3v2.3 c-0.7,0.2-1.5,0.3-2.4,0.3c-1.6,0-2.9-0.5-3.8-1.4s-1.4-2.3-1.4-4.1v-9.7H588v-2.2h3.3v-4.4l2.8-1v5.4h4.9v2.2H594z"></path> <path class="st1" d="M617.3,412.4h-12.5c0,2.2,0.5,3.8,1.5,4.9c1,1.1,2.4,1.7,4.3,1.7c2,0,3.8-0.7,5.5-2l0.9,2 c-0.7,0.7-1.7,1.3-2.9,1.7c-1.2,0.4-2.4,0.6-3.6,0.6c-2.7,0-4.8-0.8-6.3-2.4c-1.5-1.6-2.3-3.7-2.3-6.5c0-1.7,0.3-3.3,1-4.6 c0.7-1.3,1.6-2.4,2.9-3.1s2.6-1.1,4.2-1.1c2.3,0,4,0.7,5.3,2.2c1.3,1.5,1.9,3.5,1.9,6.1V412.4z M606.6,406.9 c-0.9,0.9-1.5,2.1-1.7,3.6h10c-0.1-1.6-0.6-2.8-1.4-3.7c-0.8-0.8-1.9-1.3-3.3-1.3S607.5,406.1,606.6,406.9z"></path> <path class="st1" d="M631.7,403.7l-0.1,2.5c-0.5-0.2-1.1-0.3-1.8-0.3c-1.7,0-2.9,0.5-3.7,1.5s-1.2,2.3-1.2,3.8v9.8h-2.8v-12.3 c0-1.8-0.1-3.4-0.3-4.8h2.6l0.3,3.2c0.4-1.2,1.1-2,2.1-2.7c1-0.6,2-0.9,3.3-0.9C630.7,403.5,631.2,403.6,631.7,403.7z"></path> <path class="st1" d="M647.9,396.7v3.1h-3.4v-3.1H647.9z M644.8,403.9h2.8V421h-2.8V403.9z"></path> <path class="st1" d="M668.3,410.3V421h-2.8v-10.6c0-1.6-0.3-2.7-1-3.5s-1.6-1.1-3-1.1c-1.6,0-2.9,0.5-3.8,1.5c-1,1-1.4,2.3-1.4,3.9 v9.8h-2.8v-12.3c0-1.8-0.1-3.4-0.3-4.8h2.6l0.3,3.1c0.5-1.1,1.3-2,2.3-2.6c1-0.6,2.2-0.9,3.6-0.9 C666.2,403.5,668.3,405.7,668.3,410.3z"></path> <path class="st1" d="M699,418.7v2.3h-13.5v-2.3h5.3v-18.4l-5,3.2v-2.7l6.2-3.9h1.6v21.9H699z"></path> <path class="st1" d="M729.5,403.9l-8,18.7c-0.8,1.9-1.9,3.4-3.2,4.3s-2.8,1.5-4.7,1.9l-0.6-2.1c1.6-0.4,2.8-0.8,3.7-1.4 c0.8-0.6,1.5-1.5,2.1-2.8l0.7-1.5l-7.2-16.9h2.9l5.8,14.1l5.8-14.1H729.5z"></path> <path class="st1" d="M747.4,412.4h-12.5c0,2.2,0.5,3.8,1.5,4.9c1,1.1,2.4,1.7,4.3,1.7c2,0,3.8-0.7,5.5-2l0.9,2 c-0.7,0.7-1.7,1.3-2.9,1.7c-1.2,0.4-2.4,0.6-3.6,0.6c-2.7,0-4.8-0.8-6.3-2.4c-1.5-1.6-2.3-3.7-2.3-6.5c0-1.7,0.3-3.3,1-4.6 c0.7-1.3,1.6-2.4,2.9-3.1s2.6-1.1,4.2-1.1c2.3,0,4,0.7,5.3,2.2c1.3,1.5,1.9,3.5,1.9,6.1V412.4z M736.7,406.9 c-0.9,0.9-1.5,2.1-1.7,3.6h10c-0.1-1.6-0.6-2.8-1.4-3.7c-0.8-0.8-1.9-1.3-3.3-1.3S737.6,406.1,736.7,406.9z"></path> <path class="st1" d="M767.3,403.9V421h-2.7v-3.1c-0.5,1.1-1.3,1.9-2.3,2.5s-2.2,0.9-3.5,0.9c-1.5,0-2.9-0.4-4-1.1s-2-1.8-2.7-3.1 s-0.9-2.9-0.9-4.6c0-1.8,0.3-3.3,1-4.7c0.6-1.3,1.5-2.4,2.7-3.1s2.5-1.1,4-1.1c1.3,0,2.5,0.3,3.5,0.9c1,0.6,1.8,1.4,2.3,2.5v-3 H767.3z M763.3,417.2c0.9-1.1,1.4-2.8,1.4-4.9c0-2.1-0.5-3.7-1.4-4.9c-0.9-1.1-2.2-1.7-3.9-1.7c-1.7,0-3,0.6-3.9,1.8 c-0.9,1.2-1.4,2.8-1.4,4.9c0,2.1,0.5,3.7,1.4,4.8c0.9,1.1,2.2,1.7,3.9,1.7C761.1,419,762.4,418.4,763.3,417.2z"></path> <path class="st1" d="M782.9,403.7l-0.1,2.5c-0.5-0.2-1.1-0.3-1.8-0.3c-1.7,0-2.9,0.5-3.7,1.5s-1.2,2.3-1.2,3.8v9.8h-2.8v-12.3 c0-1.8-0.1-3.4-0.3-4.8h2.6l0.3,3.2c0.4-1.2,1.1-2,2.1-2.7c1-0.6,2-0.9,3.3-0.9C781.9,403.5,782.4,403.6,782.9,403.7z"></path> </g> </svg> 